<svg width="36" height="25" viewBox="0 0 36 25" fill="none" xmlns="http://www.w3.org/2000/svg">
<path d="M2.62435 3.95768H33.3743C33.8274 3.95768 34.2619 3.7777 34.5823 3.45732C34.9027 3.13695 35.0827 2.70243 35.0827 2.24935C35.0827 1.79627 34.9027 1.36175 34.5823 1.04138C34.2619 0.721001 33.8274 0.541016 33.3743 0.541016H2.62435C2.17127 0.541016 1.73675 0.721001 1.41637 1.04138C1.096 1.36175 0.916016 1.79627 0.916016 2.24935C0.916016 2.70243 1.096 3.13695 1.41637 3.45732C1.73675 3.7777 2.17127 3.95768 2.62435 3.95768ZM2.62435 10.791H26.541C26.9941 10.791 27.4286 10.611 27.749 10.2907C28.0694 9.97028 28.2493 9.53576 28.2493 9.08268C28.2493 8.6296 28.0694 8.19508 27.749 7.87471C27.4286 7.55433 26.9941 7.37435 26.541 7.37435H2.62435C2.17127 7.37435 1.73675 7.55433 1.41637 7.87471C1.096 8.19508 0.916016 8.6296 0.916016 9.08268C0.916016 9.53576 1.096 9.97028 1.41637 10.2907C1.73675 10.611 2.17127 10.791 2.62435 10.791ZM33.3743 14.2077H2.62435C2.17127 14.2077 1.73675 14.3877 1.41637 14.708C1.096 15.0284 0.916016 15.4629 0.916016 15.916C0.916016 16.3691 1.096 16.8036 1.41637 17.124C1.73675 17.4444 2.17127 17.6243 2.62435 17.6243H33.3743C33.8274 17.6243 34.2619 17.4444 34.5823 17.124C34.9027 16.8036 35.0827 16.3691 35.0827 15.916C35.0827 15.4629 34.9027 15.0284 34.5823 14.708C34.2619 14.3877 33.8274 14.2077 33.3743 14.2077ZM26.541 21.041H2.62435C2.17127 21.041 1.73675 21.221 1.41637 21.5414C1.096 21.8617 0.916016 22.2963 0.916016 22.7493C0.916016 23.2024 1.096 23.6369 1.41637 23.9573C1.73675 24.2777 2.17127 24.4577 2.62435 24.4577H26.541C26.9941 24.4577 27.4286 24.2777 27.749 23.9573C28.0694 23.6369 28.2493 23.2024 28.2493 22.7493C28.2493 22.2963 28.0694 21.8617 27.749 21.5414C27.4286 21.221 26.9941 21.041 26.541 21.041Z" fill="white"/>
</svg>
