<svg width="60" height="60" viewBox="0 0 60 60" fill="none" xmlns="http://www.w3.org/2000/svg">
<g clip-path="url(#clip0_472_4290)">
<path d="M51.7266 16.4297V56.1328C51.7266 58.2656 49.9922 60 47.8594 60H12.1406C10.0078 60 8.27344 58.2656 8.27344 56.1328V3.86719C8.27344 1.73437 10.0078 0 12.1406 0H35.2969L51.7266 16.4297Z" fill="#518FF5"/>
<path d="M18.8906 30.1289H41.1094V32.6016H18.8906V30.1289Z" fill="white"/>
<path d="M18.8906 35.6367H41.1094V38.1094H18.8906V35.6367Z" fill="white"/>
<path d="M18.8906 41.1562H41.1094V43.6289H18.8906V41.1562Z" fill="white"/>
<path d="M18.8906 46.6641H34.6992V49.1367H18.8906V46.6641Z" fill="white"/>
<path opacity="0.19" d="M37.5352 15.8086L51.7266 27.3047V16.5L43.6875 11.8359L37.5352 15.8086Z" fill="black"/>
<path d="M51.7266 16.4297H39.1641C37.0313 16.4297 35.2969 14.6953 35.2969 12.5625V0L51.7266 16.4297Z" fill="#A6C5FA"/>
</g>
<defs>
<clipPath id="clip0_472_4290">
<rect width="60" height="60" fill="white"/>
</clipPath>
</defs>
</svg>
