<svg width="37" height="37" viewBox="0 0 37 37" fill="none" xmlns="http://www.w3.org/2000/svg">
<path opacity="0.6" d="M18.38 36.5C13.7016 36.5 9.2149 34.6036 5.9068 31.2279C2.5987 27.8523 0.740234 23.2739 0.740234 18.5V18.5C0.740234 13.7261 2.5987 9.14773 5.9068 5.77208C9.2149 2.39642 13.7016 0.5 18.38 0.5V0.5C23.0584 0.5 27.5451 2.39642 30.8532 5.77208C34.1613 9.14773 36.0198 13.7261 36.0198 18.5V18.5C36.0198 20.8638 35.5635 23.2044 34.677 25.3883C33.7905 27.5722 32.4912 29.5565 30.8532 31.2279C29.2152 32.8994 27.2706 34.2253 25.1304 35.1298C22.9903 36.0344 20.6965 36.5 18.38 36.5V36.5Z" stroke="white" stroke-miterlimit="10"/>
<path opacity="0.8" d="M15.9951 28.1457H19.7919V18.4134H22.442L22.7306 15.159H19.7919V13.3071C19.7919 12.5322 19.9362 12.2378 20.6652 12.2378H22.7306V8.85938H20.0881C17.2557 8.85938 15.98 10.1301 15.98 12.5632V15.1667H13.998V18.4599H15.98L15.9951 28.1457Z" fill="white"/>
</svg>
