<svg width="14" height="26" viewBox="0 0 14 26" fill="none" xmlns="http://www.w3.org/2000/svg">
<path fill-rule="evenodd" clip-rule="evenodd" d="M1.00132 0.495478C1.66196 -0.165159 2.73306 -0.165159 3.3937 0.495477L2.34625 1.54293C3.3937 0.495484 3.39359 0.495372 3.3937 0.495477L3.50474 0.606823L3.81437 0.91853C4.08066 1.1872 4.46061 1.5719 4.91638 2.03717C5.82724 2.967 7.044 4.22175 8.26272 5.51663C9.47735 6.80718 10.711 8.1557 11.6477 9.26802C12.113 9.82055 12.5293 10.3433 12.8375 10.7864C12.9899 11.0055 13.1401 11.2394 13.2589 11.4695C13.3402 11.6272 13.5558 12.0514 13.5558 12.5667C13.5558 13.0819 13.3402 13.5062 13.2589 13.6638C13.1401 13.894 12.9899 14.1278 12.8375 14.3469C12.5293 14.79 12.113 15.3128 11.6477 15.8653C10.711 16.9776 9.47735 18.3262 8.26272 19.6167C7.044 20.9116 5.82724 22.1663 4.91638 23.0962C4.46061 23.5614 4.08066 23.9461 3.81437 24.2148L3.50474 24.5265L3.39575 24.6358L3.39388 24.6377C3.39377 24.6378 3.3937 24.6379 2.19751 23.4417L1.00136 22.2454L1.1074 22.1391L1.41138 21.8331C1.67373 21.5684 2.04899 21.1884 2.49947 20.7286C3.40112 19.8081 4.60102 18.5707 5.79897 17.2979C7.001 16.0207 8.18398 14.726 9.05979 13.686C9.43391 13.2417 9.73461 12.8644 9.95178 12.5667C9.73461 12.269 9.43391 11.8916 9.05979 11.4473C8.18398 10.4073 7.001 9.11261 5.79897 7.83545C4.60102 6.56262 3.40112 5.32519 2.49947 4.40476C2.04899 3.94489 1.67373 3.56495 1.41138 3.30025L1.1074 2.99422L1.00279 2.88932C0.34215 2.22869 0.340683 1.15611 1.00132 0.495478ZM10.2524 13.0213C10.2698 13.0648 10.2759 13.067 10.2524 13.0213C10.2521 13.0207 10.2527 13.0219 10.2524 13.0213ZM1.00132 24.6379C0.340683 23.9772 0.340721 22.9061 1.00136 22.2454L2.19751 23.4417L3.39388 24.6377C2.73324 25.2983 1.66196 25.2985 1.00132 24.6379Z" fill="#1147AB"/>
</svg>
