<svg width="14" height="26" viewBox="0 0 14 26" fill="none" xmlns="http://www.w3.org/2000/svg">
<path fill-rule="evenodd" clip-rule="evenodd" d="M12.9791 24.6373C12.3185 25.298 11.2474 25.298 10.5868 24.6373L11.6342 23.5899C10.5868 24.6373 10.5869 24.6374 10.5868 24.6373L10.4757 24.526L10.1661 24.2143C9.89981 23.9456 9.51985 23.5609 9.06409 23.0956C8.15323 22.1658 6.93647 20.9111 5.71775 19.6162C4.50312 18.3256 3.26942 16.9771 2.33273 15.8648C1.86744 15.3123 1.45119 14.7895 1.14296 14.3464C0.990528 14.1273 0.840393 13.8934 0.7216 13.6633C0.640246 13.5057 0.424622 13.0814 0.424622 12.5661C0.424622 12.0509 0.640246 11.6266 0.7216 11.469C0.840393 11.2389 0.990528 11.005 1.14296 10.7859C1.45119 10.3428 1.86744 9.82004 2.33273 9.2675C3.26942 8.15518 4.50312 6.80666 5.71775 5.51611C6.93646 4.22123 8.15323 2.96648 9.06408 2.03665C9.51985 1.57138 9.89981 1.18668 10.1661 0.918009L10.4757 0.606301L10.5847 0.497012L10.5866 0.495141C10.5867 0.49503 10.5868 0.494956 11.783 1.69115L12.9791 2.88737L12.8731 2.9937L12.5691 3.29973C12.3067 3.56443 11.9315 3.94437 11.481 4.40424C10.5794 5.32467 9.37945 6.5621 8.18149 7.83493C6.97946 9.11209 5.79649 10.4068 4.92068 11.4468C4.54656 11.8911 4.24586 12.2685 4.02869 12.5662C4.24586 12.8638 4.54656 13.2412 4.92068 13.6855C5.79649 14.7255 6.97946 16.0202 8.1815 17.2974C9.37945 18.5702 10.5794 19.8076 11.481 20.7281C11.9315 21.1879 12.3067 21.5679 12.5691 21.8326L12.8731 22.1386L12.9777 22.2435C13.6383 22.9041 13.6398 23.9767 12.9791 24.6373ZM3.7281 12.1115C3.71071 12.068 3.70452 12.0659 3.7281 12.1115C3.7284 12.1121 3.72779 12.1109 3.7281 12.1115ZM12.9791 0.494955C13.6398 1.15559 13.6397 2.22674 12.9791 2.88737L11.783 1.69115L10.5866 0.495141C11.2472 -0.165496 12.3185 -0.165682 12.9791 0.494955Z" fill="#1147AB"/>
</svg>
