<svg width="23" height="23" viewBox="0 0 23 23" fill="none" xmlns="http://www.w3.org/2000/svg">
<path d="M22.508 6.64926C22.4954 5.70336 22.3183 4.76686 21.9847 3.88165C21.6954 3.13499 21.2535 2.45688 20.6873 1.89066C20.1211 1.32444 19.443 0.882552 18.6963 0.593238C17.8225 0.265218 16.8993 0.0878508 15.9661 0.0686908C14.7647 0.0149872 14.3838 0 11.3339 0C8.28403 0 7.89311 8.37468e-08 6.70039 0.0686908C5.76764 0.0879917 4.84493 0.265356 3.9715 0.593238C3.22471 0.882351 2.5465 1.32416 1.98025 1.89041C1.41401 2.45666 0.972194 3.13487 0.683082 3.88165C0.354404 4.75481 0.177422 5.67774 0.159783 6.61055C0.10608 7.81326 0.0898438 8.19418 0.0898438 11.2441C0.0898438 14.2939 0.0898437 14.6836 0.159783 15.8776C0.178517 16.8117 0.354615 17.7335 0.683082 18.6089C0.972679 19.3555 1.41482 20.0334 1.98126 20.5994C2.54769 21.1655 3.22597 21.6071 3.97274 21.8961C4.84378 22.2373 5.76666 22.4274 6.70164 22.4581C7.90435 22.5118 8.28527 22.5281 11.3351 22.5281C14.385 22.5281 14.7759 22.5281 15.9686 22.4581C16.9018 22.4398 17.825 22.2628 18.6988 21.9348C19.4453 21.6452 20.1232 21.2032 20.6894 20.637C21.2556 20.0708 21.6976 19.3929 21.9872 18.6464C22.3157 17.7722 22.4918 16.8505 22.5105 15.915C22.5642 14.7136 22.5804 14.3326 22.5804 11.2815C22.5779 8.23165 22.5779 7.84448 22.508 6.64926ZM11.3264 17.0116C8.13665 17.0116 5.55263 14.4276 5.55263 11.2378C5.55263 8.04806 8.13665 5.46404 11.3264 5.46404C12.8577 5.46404 14.3263 6.07234 15.4091 7.15514C16.4919 8.23793 17.1002 9.70651 17.1002 11.2378C17.1002 12.7691 16.4919 14.2377 15.4091 15.3205C14.3263 16.4033 12.8577 17.0116 11.3264 17.0116ZM17.33 6.59681C17.1531 6.59697 16.978 6.56226 16.8146 6.49466C16.6511 6.42706 16.5027 6.32789 16.3776 6.20284C16.2526 6.07779 16.1534 5.92931 16.0858 5.76589C16.0182 5.60247 15.9835 5.42732 15.9836 5.25047C15.9836 5.07375 16.0184 4.89876 16.0861 4.73549C16.1537 4.57222 16.2528 4.42387 16.3778 4.29891C16.5027 4.17395 16.6511 4.07482 16.8144 4.00719C16.9776 3.93956 17.1526 3.90476 17.3293 3.90476C17.5061 3.90476 17.6811 3.93956 17.8443 4.00719C18.0076 4.07482 18.156 4.17395 18.2809 4.29891C18.4059 4.42387 18.505 4.57222 18.5726 4.73549C18.6403 4.89876 18.6751 5.07375 18.6751 5.25047C18.6751 5.99483 18.0731 6.59681 17.33 6.59681Z" fill="white"/>
<path d="M11.3267 14.9893C13.398 14.9893 15.0772 13.3101 15.0772 11.2388C15.0772 9.16744 13.398 7.48828 11.3267 7.48828C9.25533 7.48828 7.57617 9.16744 7.57617 11.2388C7.57617 13.3101 9.25533 14.9893 11.3267 14.9893Z" fill="white"/>
</svg>
