<svg width="38" height="37" viewBox="0 0 38 37" fill="none" xmlns="http://www.w3.org/2000/svg">
<path opacity="0.6" d="M19.1164 36.5C14.4384 36.4979 9.95264 34.6002 6.64547 31.2241C3.3383 27.8479 1.48047 23.2697 1.48047 18.4961V18.4961C1.48047 13.7233 3.33854 9.14587 6.64593 5.77094C9.95331 2.39602 14.4391 0.500002 19.1164 0.500002C21.4331 0.498984 23.7272 0.96372 25.8678 1.86765C28.0083 2.77159 29.9534 4.09701 31.5919 5.7682C33.2303 7.4394 34.5301 9.42362 35.4168 11.6075C36.3036 13.7914 36.76 16.1322 36.76 18.4961V18.4961C36.76 23.2711 34.9011 27.8504 31.5923 31.2268C28.2835 34.6032 23.7958 36.5 19.1164 36.5V36.5Z" stroke="white" stroke-miterlimit="10"/>
<g opacity="0.8">
<path d="M19.1161 11.3228C21.3937 11.3228 21.6822 11.3228 22.5856 11.3771C23.1303 11.3819 23.6699 11.4842 24.1799 11.6792C24.5499 11.8188 24.8845 12.0411 25.1593 12.3299C25.4432 12.614 25.6634 12.9576 25.8046 13.337C25.9919 13.8586 26.092 14.4085 26.1007 14.9639C26.1007 15.8858 26.1462 16.1647 26.1462 18.4965C26.1462 20.8283 26.1462 21.115 26.1007 22.0368C26.092 22.5922 25.9919 23.1422 25.8046 23.6637C25.6579 24.0379 25.4383 24.3778 25.159 24.6628C24.8798 24.9478 24.5466 25.1719 24.1799 25.3215C23.6688 25.5127 23.1299 25.6148 22.5856 25.6237C21.6822 25.6237 21.4089 25.6702 19.1161 25.6702C16.8234 25.6702 16.5577 25.6702 15.6542 25.6237C15.11 25.6148 14.571 25.5127 14.06 25.3215C13.6932 25.1719 13.3601 24.9478 13.0808 24.6628C12.8015 24.3778 12.5819 24.0379 12.4353 23.6637C12.248 23.1422 12.1479 22.5922 12.1392 22.0368C12.1013 21.115 12.0937 20.8361 12.0937 18.4965C12.0937 16.1569 12.0937 15.8858 12.1392 14.9639C12.1479 14.4085 12.248 13.8586 12.4353 13.337C12.5765 12.9576 12.7966 12.614 13.0806 12.3299C13.3554 12.0411 13.69 11.8188 14.06 11.6792C14.57 11.4842 15.1096 11.3819 15.6542 11.3771C16.5577 11.3771 16.831 11.3228 19.1161 11.3228ZM19.1161 9.77344C16.793 9.77344 16.4969 9.77344 15.5859 9.82767C14.875 9.8393 14.1714 9.97556 13.5058 10.2305C12.9367 10.4588 12.4198 10.8043 11.9875 11.2455C11.5551 11.6867 11.2165 12.2141 10.9928 12.7948C10.7423 13.4738 10.6087 14.1919 10.5981 14.9174C10.5525 15.847 10.5449 16.1492 10.5449 18.5197C10.5449 20.8903 10.5449 21.2002 10.5981 22.1298C10.6095 22.8552 10.743 23.5732 10.9928 24.2525C11.2165 24.8332 11.5551 25.3606 11.9875 25.8017C12.4198 26.2429 12.9367 26.5884 13.5058 26.8167C14.1724 27.0679 14.8754 27.204 15.5859 27.2195C16.4969 27.266 16.793 27.2738 19.1161 27.2738C21.4392 27.2738 21.7429 27.2738 22.6539 27.2195C23.3644 27.204 24.0675 27.0679 24.7341 26.8167C25.3032 26.5884 25.82 26.2429 26.2524 25.8017C26.6847 25.3606 27.0233 24.8332 27.247 24.2525C27.4969 23.5732 27.6304 22.8552 27.6418 22.1298C27.6874 21.2002 27.6949 20.898 27.6949 18.5197C27.6949 16.1414 27.6949 15.847 27.6418 14.9174C27.6312 14.1919 27.4976 13.4738 27.247 12.7948C27.0233 12.2141 26.6847 11.6867 26.2524 11.2455C25.82 10.8043 25.3032 10.4588 24.7341 10.2305C24.0685 9.97556 23.3648 9.8393 22.6539 9.82767C21.7429 9.78119 21.4468 9.77344 19.1161 9.77344Z" fill="white"/>
<path d="M19.1162 14.0039C18.2453 14.0039 17.394 14.2674 16.6698 14.7612C15.9457 15.2549 15.3813 15.9566 15.0481 16.7776C14.7148 17.5987 14.6276 18.5021 14.7975 19.3737C14.9674 20.2453 15.3868 21.0459 16.0026 21.6743C16.6184 22.3027 17.403 22.7306 18.2571 22.904C19.1113 23.0774 19.9966 22.9884 20.8012 22.6483C21.6058 22.3082 22.2935 21.7323 22.7774 20.9934C23.2612 20.2545 23.5195 19.3858 23.5195 18.4971C23.5195 17.3055 23.0555 16.1626 22.2298 15.3199C21.404 14.4773 20.284 14.0039 19.1162 14.0039ZM19.1162 21.4177C18.5501 21.4177 17.9967 21.2464 17.5261 20.9255C17.0554 20.6046 16.6885 20.1485 16.4719 19.6148C16.2553 19.0811 16.1986 18.4939 16.309 17.9273C16.4195 17.3608 16.6921 16.8404 17.0923 16.432C17.4926 16.0235 18.0026 15.7453 18.5578 15.6326C19.113 15.52 19.6885 15.5778 20.2115 15.7988C20.7344 16.0199 21.1815 16.3942 21.4959 16.8745C21.8104 17.3548 21.9783 17.9195 21.9783 18.4971C21.9783 18.8807 21.9043 19.2604 21.7604 19.6148C21.6166 19.9691 21.4058 20.2911 21.14 20.5623C20.8742 20.8335 20.5587 21.0486 20.2115 21.1954C19.8642 21.3422 19.492 21.4177 19.1162 21.4177Z" fill="white"/>
<path d="M24.688 13.833C24.688 14.042 24.6271 14.2463 24.5129 14.4199C24.3988 14.5935 24.2366 14.7285 24.0471 14.8078C23.8575 14.887 23.6492 14.907 23.4485 14.8651C23.2478 14.8231 23.0638 14.7212 22.9201 14.5723C22.7763 14.4234 22.6792 14.2343 22.6411 14.0289C22.603 13.8235 22.6256 13.6112 22.7061 13.419C22.7865 13.2267 22.9212 13.0633 23.093 12.9494C23.2648 12.8355 23.4659 12.7763 23.6707 12.7794C23.9446 12.7794 24.2072 12.8904 24.4008 13.088C24.5944 13.2856 24.7032 13.5536 24.7032 13.833" fill="white"/>
</g>
</svg>
