<svg width="80" height="80" viewBox="0 0 80 80" fill="none" xmlns="http://www.w3.org/2000/svg">
<circle cx="40" cy="40" r="40" fill="#FFF9E4"/>
<g clip-path="url(#clip0_497_7589)">
<path d="M29.9922 26.4414H49.1696V27.64H29.9922V26.4414Z" fill="#CB8D16"/>
<path d="M29.9922 28.8398H49.1696V30.0384H29.9922V28.8398Z" fill="#CB8D16"/>
<path d="M29.9922 31.2344H49.1696V32.4329H29.9922V31.2344Z" fill="#CB8D16"/>
<path d="M29.9922 33.6328H46.7724V34.8314H29.9922V33.6328Z" fill="#CB8D16"/>
<path d="M29.9922 36.0312H45.5739V37.2298H29.9922V36.0312Z" fill="#CB8D16"/>
<path d="M29.9922 38.4277H44.3751V39.6263H29.9922V38.4277Z" fill="#CB8D16"/>
<path d="M52.1654 48.6151C51.8346 48.6151 51.5662 48.8831 51.5662 49.2144V54.6081C51.5662 55.6008 50.7613 56.4059 49.7683 56.4059C48.7754 56.4059 47.9705 55.6008 47.9705 54.6081V52.2108C47.9705 51.8795 47.702 51.6115 47.3712 51.6115H27.5946V24.6433C27.6269 23.6217 28.4785 22.8185 29.5003 22.8454H52.1809C51.7844 23.361 51.5685 23.9929 51.5662 24.6433V30.037C51.5662 30.3681 51.8346 30.6363 52.1654 30.6363C52.4965 30.6363 52.7647 30.3681 52.7647 30.037V27.6399H56.9599C57.2907 27.6399 57.5592 27.3714 57.5592 27.0406V24.6433C57.5571 22.9892 56.2169 21.6488 54.5626 21.6469H29.5003C27.8168 21.6199 26.4286 22.9599 26.396 24.6433V51.6115H22.2008C21.8698 51.6115 21.6016 51.8795 21.6016 52.2108V54.6081C21.6037 56.262 22.9438 57.6024 24.598 57.6045H49.7683C51.4224 57.6024 52.7628 56.262 52.7647 54.6081V49.2144C52.7647 48.8831 52.4965 48.6151 52.1654 48.6151ZM56.3606 24.6433V26.4413H52.7647V24.6433C52.7647 23.6501 53.5699 22.8454 54.5626 22.8454C55.5555 22.8454 56.3606 23.6501 56.3606 24.6433ZM22.8001 54.6081V52.81H46.7719V54.6081C46.7743 55.2585 46.9902 55.8899 47.3867 56.4059H24.598C23.6053 56.4059 22.8001 55.6008 22.8001 54.6081Z" fill="#CB8D16"/>
<path d="M56.9598 41.4238H32.9879C32.6571 41.4238 32.3887 41.6918 32.3887 42.0231V46.8176C32.3887 47.1484 32.6571 47.4168 32.9879 47.4168H56.9598C57.2906 47.4168 57.5591 47.1484 57.5591 46.8176V42.0231C57.5591 41.6918 57.2906 41.4238 56.9598 41.4238ZM56.3605 46.2183H33.5872V42.6224H34.7858V43.2217H35.9846V42.6224H37.1831V43.2217H38.3817V42.6224H39.5802V43.2217H40.7788V42.6224H41.9774V43.2217H43.1759V42.6224H44.3745V43.2217H45.5733V42.6224H46.7718V43.2217H47.9704V42.6224H49.1689V43.2217H50.3675V42.6224H51.566V43.2217H52.7646V42.6224H53.9631V43.2217H55.1619V42.6224H56.3605V46.2183Z" fill="#CB8D16"/>
<path d="M46.058 40.9386C46.1392 40.9386 46.2193 40.9221 46.2937 40.8898L49.2485 39.6249L49.2577 39.6204C49.3198 39.5928 49.377 39.5543 49.426 39.5067C49.4319 39.5013 49.4399 39.4997 49.4457 39.4936L56.2279 32.7119L57.0753 31.8645C57.7777 31.1625 57.7777 30.024 57.0753 29.3216C56.3639 28.6428 55.2446 28.6428 54.5333 29.3216L53.6852 30.1691L46.9056 36.9488C46.8993 36.9549 46.8976 36.9626 46.8922 36.9687C46.8446 37.0177 46.806 37.0747 46.7783 37.137L46.7724 37.1459L45.5073 40.1041C45.428 40.2891 45.4473 40.5015 45.5579 40.6699C45.6688 40.8377 45.8566 40.9388 46.058 40.939V40.9386ZM47.1966 39.2005L47.5293 38.4214L47.9726 38.865L47.1966 39.2005ZM55.3813 30.1691C55.6181 29.9427 55.9911 29.9427 56.2279 30.1691C56.4619 30.4031 56.4619 30.7825 56.2279 31.0165L55.8043 31.4408L54.9562 30.5928L55.3813 30.1691ZM54.1089 31.4401L54.9569 32.2882L49.0237 38.2212L48.1757 37.3731L54.1089 31.4401Z" fill="#CB8D16"/>
</g>
<defs>
<clipPath id="clip0_497_7589">
<rect width="36" height="36" fill="white" transform="translate(21.6016 21.5996)"/>
</clipPath>
</defs>
</svg>
