<svg width="19" height="23" viewBox="0 0 19 23" fill="none" xmlns="http://www.w3.org/2000/svg">
<path d="M18 9.5C18 16.1111 9.5 21.7778 9.5 21.7778C9.5 21.7778 1 16.1111 1 9.5C1 7.24566 1.89553 5.08365 3.48959 3.48959C5.08365 1.89553 7.24566 1 9.5 1C11.7543 1 13.9163 1.89553 15.5104 3.48959C17.1045 5.08365 18 7.24566 18 9.5Z" stroke="black" strokeWidth="1.3" strokeLinecap="round" strokeLinejoin="round"/>
<path d="M9.49935 12.3346C11.0642 12.3346 12.3327 11.0661 12.3327 9.5013C12.3327 7.9365 11.0642 6.66797 9.49935 6.66797C7.93454 6.66797 6.66602 7.9365 6.66602 9.5013C6.66602 11.0661 7.93454 12.3346 9.49935 12.3346Z" stroke="black" strokeWidth="1.3" strokeLinecap="round" strokeLinejoin="round"/>
</svg>
