<svg width="144" height="44" viewBox="0 0 144 44" fill="none" xmlns="http://www.w3.org/2000/svg">
<path d="M0.587078 32.9879V35.8047H0.00195312V32.9879H0.587078Z" fill="white"/>
<path d="M5.2701 32.9879V35.8047H4.68498L3.41318 33.8632V35.8047H2.83047V32.9879H3.41318L4.68498 34.9295V32.9879H5.2701Z" fill="white"/>
<path d="M9.05852 35.0673C9.05852 35.0141 9.04885 34.9665 9.02951 34.9246C9.01177 34.8827 8.98034 34.8448 8.93521 34.811C8.89169 34.7755 8.83124 34.7425 8.75387 34.7118C8.67811 34.6812 8.5822 34.6522 8.46614 34.6248C8.2985 34.5845 8.15021 34.5394 8.02125 34.4894C7.89391 34.4378 7.78672 34.3782 7.69968 34.3105C7.61263 34.2428 7.54655 34.163 7.50141 34.0711C7.45789 33.9792 7.43613 33.872 7.43613 33.7495C7.43613 33.6319 7.46192 33.5247 7.5135 33.428C7.56508 33.3296 7.63842 33.245 7.73353 33.1741C7.82863 33.1015 7.94146 33.0459 8.07203 33.0072C8.20259 32.9686 8.34605 32.9492 8.50241 32.9492C8.72969 32.9492 8.92715 32.9863 9.09479 33.0604C9.26243 33.1346 9.39219 33.2369 9.48407 33.3675C9.57756 33.4965 9.6243 33.6464 9.6243 33.8172H9.04159C9.04159 33.7366 9.02064 33.6641 8.97873 33.5996C8.93843 33.5351 8.87879 33.4836 8.79981 33.4449C8.72082 33.4062 8.62169 33.3869 8.50241 33.3869C8.38796 33.3869 8.29367 33.4038 8.21952 33.4376C8.14537 33.4699 8.08976 33.5126 8.05269 33.5658C8.01722 33.6174 7.99949 33.6738 7.99949 33.735C7.99949 33.7834 8.00997 33.8269 8.03093 33.8656C8.05349 33.9043 8.08895 33.9397 8.13731 33.972C8.18567 34.0042 8.24853 34.0348 8.32591 34.0639C8.40328 34.0929 8.49757 34.1211 8.6088 34.1485C8.77482 34.1872 8.92151 34.2331 9.04885 34.2863C9.17619 34.3395 9.28258 34.4024 9.36801 34.4749C9.45344 34.5458 9.51711 34.6296 9.55902 34.7264C9.60254 34.8215 9.6243 34.9303 9.6243 35.0528C9.6243 35.1769 9.59851 35.2881 9.54693 35.3864C9.49535 35.4831 9.4212 35.5654 9.32449 35.6331C9.22938 35.7008 9.11494 35.7531 8.98115 35.7902C8.84736 35.8257 8.69826 35.8434 8.53384 35.8434C8.38877 35.8434 8.2445 35.8257 8.10104 35.7902C7.9592 35.7548 7.83105 35.6999 7.7166 35.6258C7.60216 35.5517 7.51028 35.4574 7.44096 35.3429C7.37326 35.2269 7.33941 35.0906 7.33941 34.9343H7.92454C7.92454 35.0181 7.93905 35.0906 7.96806 35.1519C7.99869 35.2115 8.0414 35.2607 8.09621 35.2994C8.15263 35.3365 8.21952 35.3639 8.29689 35.3816C8.37426 35.3993 8.45969 35.4082 8.55319 35.4082C8.67086 35.4082 8.76676 35.3929 8.84091 35.3623C8.91667 35.33 8.97148 35.2881 9.00533 35.2365C9.04079 35.1849 9.05852 35.1285 9.05852 35.0673Z" fill="white"/>
<path d="M13.0307 32.9879V35.8047H12.448V32.9879H13.0307ZM13.9688 32.9879V33.4521H11.5219V32.9879H13.9688Z" fill="white"/>
<path d="M16.6063 32.9879V35.8047H16.0212V32.9879H16.6063Z" fill="white"/>
<path d="M20.1626 32.9879V35.8047H19.5799V32.9879H20.1626ZM21.1008 32.9879V33.4521H18.6539V32.9879H21.1008Z" fill="white"/>
<path d="M24.7973 32.9879H25.3824V34.8448C25.3824 35.0608 25.3325 35.2438 25.2325 35.3937C25.1326 35.542 24.9964 35.654 24.8239 35.7298C24.6514 35.8055 24.4548 35.8434 24.2339 35.8434C24.0099 35.8434 23.8108 35.8055 23.6367 35.7298C23.4643 35.654 23.3289 35.542 23.2305 35.3937C23.1322 35.2438 23.083 35.0608 23.083 34.8448V32.9879H23.6633V34.8448C23.6633 34.9689 23.6859 35.0713 23.731 35.1519C23.7778 35.2309 23.8439 35.2889 23.9293 35.326C24.0147 35.3631 24.1163 35.3816 24.2339 35.3816C24.3516 35.3816 24.4524 35.3631 24.5362 35.326C24.62 35.2889 24.6845 35.2309 24.7296 35.1519C24.7747 35.0713 24.7973 34.9689 24.7973 34.8448V32.9879Z" fill="white"/>
<path d="M28.8662 32.9879V35.8047H28.2835V32.9879H28.8662ZM29.8043 32.9879V33.4521H27.3574V32.9879H29.8043Z" fill="white"/>
<path d="M33.8297 35.3429V35.8047H32.217V35.3429H33.8297ZM32.4007 32.9879V35.8047H31.818V32.9879H32.4007ZM33.6218 34.1171V34.5789H32.217V34.1171H33.6218ZM33.8249 32.9879V33.4521H32.217V32.9879H33.8249Z" fill="white"/>
<path d="M41.1744 34.3298V34.4652C41.1744 34.6796 41.1438 34.8714 41.0825 35.0407C41.0213 35.2099 40.9342 35.355 40.8214 35.4759C40.7102 35.5952 40.5764 35.6862 40.42 35.7491C40.2637 35.812 40.0912 35.8434 39.9026 35.8434C39.714 35.8434 39.5415 35.812 39.3852 35.7491C39.2288 35.6862 39.0934 35.5952 38.979 35.4759C38.8645 35.355 38.7759 35.2099 38.713 35.0407C38.6518 34.8714 38.6211 34.6796 38.6211 34.4652V34.3298C38.6211 34.1154 38.6518 33.9236 38.713 33.7544C38.7759 33.5851 38.8637 33.44 38.9766 33.3192C39.0894 33.1983 39.224 33.1064 39.3803 33.0435C39.5367 32.9807 39.7092 32.9492 39.8978 32.9492C40.088 32.9492 40.2605 32.9807 40.4152 33.0435C40.5716 33.1064 40.7062 33.1983 40.819 33.3192C40.9334 33.44 41.0213 33.5851 41.0825 33.7544C41.1438 33.9236 41.1744 34.1154 41.1744 34.3298ZM40.5917 34.4652V34.325C40.5917 34.1783 40.5764 34.0485 40.5458 33.9357C40.5151 33.8229 40.4692 33.7278 40.4079 33.6504C40.3483 33.573 40.2758 33.5142 40.1903 33.4739C40.1049 33.4336 40.0074 33.4134 39.8978 33.4134C39.7898 33.4134 39.6923 33.4336 39.6052 33.4739C39.5198 33.5142 39.4472 33.573 39.3876 33.6504C39.3296 33.7278 39.2844 33.8229 39.2522 33.9357C39.2216 34.0485 39.2063 34.1783 39.2063 34.325V34.4652C39.2063 34.6103 39.2216 34.7401 39.2522 34.8545C39.2844 34.9673 39.3304 35.0632 39.39 35.1422C39.4513 35.2196 39.5246 35.2792 39.6101 35.3211C39.6971 35.3614 39.7946 35.3816 39.9026 35.3816C40.0122 35.3816 40.1089 35.3614 40.1928 35.3211C40.2782 35.2792 40.3507 35.2196 40.4104 35.1422C40.47 35.0632 40.5151 34.9673 40.5458 34.8545C40.5764 34.7401 40.5917 34.6103 40.5917 34.4652Z" fill="white"/>
<path d="M43.8699 32.9879V35.8047H43.2872V32.9879H43.8699ZM45.091 34.1848V34.649H43.7128V34.1848H45.091ZM45.2481 32.9879V33.4521H43.7128V32.9879H45.2481Z" fill="white"/>
<path d="M52.0537 35.3429V35.8047H50.528V35.3429H52.0537ZM50.7117 32.9879V35.8047H50.129V32.9879H50.7117Z" fill="white"/>
<path d="M55.2352 33.5658L54.3889 35.8047H53.799L54.933 32.9879H55.3247L55.2352 33.5658ZM56.0162 35.8047L55.1651 33.5609L55.0756 32.9879H55.4746L56.6061 35.8047H56.0162ZM55.9799 34.7602V35.1978H54.3696V34.7602H55.9799Z" fill="white"/>
<path d="M59.7127 34.574H58.9341L58.9293 34.1727H59.6232C59.728 34.1727 59.8167 34.159 59.8892 34.1316C59.9617 34.1042 60.0165 34.0647 60.0536 34.0131C60.0923 33.9599 60.1116 33.8954 60.1116 33.8197C60.1116 33.7342 60.0931 33.6641 60.056 33.6093C60.019 33.5545 59.9634 33.515 59.8892 33.4908C59.8151 33.465 59.7232 33.4521 59.6136 33.4521H59.13V35.8047H58.5473V32.9879H59.5821C59.7562 32.9879 59.911 33.004 60.0464 33.0363C60.1834 33.0669 60.3002 33.1136 60.397 33.1765C60.4937 33.2394 60.567 33.32 60.617 33.4183C60.6686 33.515 60.6944 33.6294 60.6944 33.7616C60.6944 33.8761 60.6653 33.9825 60.6073 34.0808C60.5509 34.1791 60.4639 34.2589 60.3462 34.3202C60.2285 34.3814 60.0762 34.4153 59.8892 34.4217L59.7127 34.574ZM59.6861 35.8047H58.7697L59.0067 35.3429H59.6861C59.7989 35.3429 59.8916 35.3268 59.9642 35.2946C60.0383 35.2623 60.0931 35.2188 60.1286 35.164C60.164 35.1076 60.1818 35.0431 60.1818 34.9706C60.1818 34.89 60.1656 34.8207 60.1334 34.7626C60.1028 34.703 60.0528 34.657 59.9835 34.6248C59.9142 34.591 59.8239 34.574 59.7127 34.574H59.1179L59.1203 34.1727H59.8747L60.0077 34.3298C60.1866 34.3266 60.3317 34.358 60.4429 34.4241C60.5541 34.4886 60.6355 34.5724 60.6871 34.6756C60.7403 34.7787 60.7669 34.8859 60.7669 34.9972C60.7669 35.1342 60.7427 35.2534 60.6944 35.355C60.646 35.4549 60.5759 35.5388 60.484 35.6065C60.3921 35.6725 60.2793 35.7225 60.1455 35.7564C60.0117 35.7886 59.8586 35.8047 59.6861 35.8047Z" fill="white"/>
<path d="M65.346 34.3298V34.4652C65.346 34.6796 65.3153 34.8714 65.2541 35.0407C65.1928 35.2099 65.1058 35.355 64.9929 35.4759C64.8817 35.5952 64.7479 35.6862 64.5916 35.7491C64.4352 35.812 64.2627 35.8434 64.0742 35.8434C63.8856 35.8434 63.7131 35.812 63.5567 35.7491C63.4004 35.6862 63.265 35.5952 63.1505 35.4759C63.0361 35.355 62.9474 35.2099 62.8846 35.0407C62.8233 34.8714 62.7927 34.6796 62.7927 34.4652V34.3298C62.7927 34.1154 62.8233 33.9236 62.8846 33.7544C62.9474 33.5851 63.0353 33.44 63.1481 33.3192C63.2609 33.1983 63.3955 33.1064 63.5519 33.0435C63.7082 32.9807 63.8807 32.9492 64.0693 32.9492C64.2595 32.9492 64.432 32.9807 64.5867 33.0435C64.7431 33.1064 64.8777 33.1983 64.9905 33.3192C65.105 33.44 65.1928 33.5851 65.2541 33.7544C65.3153 33.9236 65.346 34.1154 65.346 34.3298ZM64.7632 34.4652V34.325C64.7632 34.1783 64.7479 34.0485 64.7173 33.9357C64.6867 33.8229 64.6407 33.7278 64.5795 33.6504C64.5199 33.573 64.4473 33.5142 64.3619 33.4739C64.2765 33.4336 64.1789 33.4134 64.0693 33.4134C63.9613 33.4134 63.8638 33.4336 63.7768 33.4739C63.6913 33.5142 63.6188 33.573 63.5591 33.6504C63.5011 33.7278 63.456 33.8229 63.4237 33.9357C63.3931 34.0485 63.3778 34.1783 63.3778 34.325V34.4652C63.3778 34.6103 63.3931 34.7401 63.4237 34.8545C63.456 34.9673 63.5019 35.0632 63.5616 35.1422C63.6228 35.2196 63.6962 35.2792 63.7816 35.3211C63.8686 35.3614 63.9662 35.3816 64.0742 35.3816C64.1838 35.3816 64.2805 35.3614 64.3643 35.3211C64.4497 35.2792 64.5223 35.2196 64.5819 35.1422C64.6415 35.0632 64.6867 34.9673 64.7173 34.8545C64.7479 34.7401 64.7632 34.6103 64.7632 34.4652Z" fill="white"/>
<path d="M67.4564 32.9879H68.5662C68.7386 32.9879 68.8934 33.0064 69.0304 33.0435C69.1674 33.0806 69.2835 33.1354 69.3786 33.2079C69.4753 33.2789 69.5486 33.3675 69.5986 33.4739C69.6502 33.5787 69.676 33.7004 69.676 33.839C69.676 33.9921 69.6486 34.1235 69.5938 34.2331C69.539 34.3411 69.4616 34.4306 69.3616 34.5015C69.2617 34.5724 69.144 34.6296 69.0086 34.6732L68.8225 34.7747H67.8432L67.8384 34.3105H68.5734C68.6895 34.3105 68.7854 34.2927 68.8611 34.2573C68.9369 34.2218 68.9941 34.1727 69.0328 34.1098C69.0715 34.0453 69.0908 33.9712 69.0908 33.8874C69.0908 33.7987 69.0715 33.7221 69.0328 33.6577C68.9957 33.5916 68.9377 33.5408 68.8587 33.5053C68.7814 33.4699 68.6838 33.4521 68.5662 33.4521H68.0415V35.8047H67.4564V32.9879ZM69.1634 35.8047L68.467 34.5571L69.0836 34.5523L69.792 35.7781V35.8047H69.1634Z" fill="white"/>
<path d="M74.9365 32.9879H75.4394L76.2542 35.0407L77.0666 32.9879H77.5695L76.4525 35.8047H76.0535L74.9365 32.9879ZM74.6778 32.9879H75.171L75.2605 35.031V35.8047H74.6778V32.9879ZM77.3374 32.9879H77.8331V35.8047H77.2504V35.031L77.3374 32.9879Z" fill="white"/>
<path d="M81.2105 33.5658L80.3642 35.8047H79.7743L80.9082 32.9879H81.2999L81.2105 33.5658ZM81.9914 35.8047L81.1404 33.5609L81.0509 32.9879H81.4498L82.5814 35.8047H81.9914ZM81.9552 34.7602V35.1978H80.3449V34.7602H81.9552Z" fill="white"/>
<path d="M84.5201 32.9879H85.63C85.8024 32.9879 85.9572 33.0064 86.0942 33.0435C86.2312 33.0806 86.3473 33.1354 86.4424 33.2079C86.5391 33.2789 86.6124 33.3675 86.6624 33.4739C86.714 33.5787 86.7398 33.7004 86.7398 33.839C86.7398 33.9921 86.7123 34.1235 86.6575 34.2331C86.6027 34.3411 86.5254 34.4306 86.4254 34.5015C86.3255 34.5724 86.2078 34.6296 86.0724 34.6732L85.8862 34.7747H84.907L84.9022 34.3105H85.6372C85.7533 34.3105 85.8492 34.2927 85.9249 34.2573C86.0007 34.2218 86.0579 34.1727 86.0966 34.1098C86.1353 34.0453 86.1546 33.9712 86.1546 33.8874C86.1546 33.7987 86.1353 33.7221 86.0966 33.6577C86.0595 33.5916 86.0015 33.5408 85.9225 33.5053C85.8451 33.4699 85.7476 33.4521 85.63 33.4521H85.1053V35.8047H84.5201V32.9879ZM86.2272 35.8047L85.5308 34.5571L86.1474 34.5523L86.8558 35.7781V35.8047H86.2272Z" fill="white"/>
<path d="M89.457 32.9879V35.8047H88.8743V32.9879H89.457ZM91.2632 32.9879L90.0639 34.3854L89.3869 35.0455L89.2515 34.4991L89.7303 33.9139L90.5378 32.9879H91.2632ZM90.6176 35.8047L89.6867 34.5063L90.1123 34.1461L91.314 35.8047H90.6176Z" fill="white"/>
<path d="M95.2233 35.3429V35.8047H93.6106V35.3429H95.2233ZM93.7943 32.9879V35.8047H93.2116V32.9879H93.7943ZM95.0153 34.1171V34.5789H93.6106V34.1171H95.0153ZM95.2184 32.9879V33.4521H93.6106V32.9879H95.2184Z" fill="white"/>
<path d="M98.5571 32.9879V35.8047H97.9744V32.9879H98.5571ZM99.4953 32.9879V33.4521H97.0484V32.9879H99.4953Z" fill="white"/>
<path d="M104.374 32.9879H105.484C105.656 32.9879 105.811 33.0064 105.948 33.0435C106.085 33.0806 106.201 33.1354 106.296 33.2079C106.393 33.2789 106.466 33.3675 106.516 33.4739C106.568 33.5787 106.593 33.7004 106.593 33.839C106.593 33.9921 106.566 34.1235 106.511 34.2331C106.456 34.3411 106.379 34.4306 106.279 34.5015C106.179 34.5724 106.061 34.6296 105.926 34.6732L105.74 34.7747H104.761L104.756 34.3105H105.491C105.607 34.3105 105.703 34.2927 105.779 34.2573C105.854 34.2218 105.912 34.1727 105.95 34.1098C105.989 34.0453 106.008 33.9712 106.008 33.8874C106.008 33.7987 105.989 33.7221 105.95 33.6577C105.913 33.5916 105.855 33.5408 105.776 33.5053C105.699 33.4699 105.601 33.4521 105.484 33.4521H104.959V35.8047H104.374V32.9879ZM106.081 35.8047L105.384 34.5571L106.001 34.5523L106.709 35.7781V35.8047H106.081Z" fill="white"/>
<path d="M110.74 35.3429V35.8047H109.127V35.3429H110.74ZM109.311 32.9879V35.8047H108.728V32.9879H109.311ZM110.532 34.1171V34.5789H109.127V34.1171H110.532ZM110.735 32.9879V33.4521H109.127V32.9879H110.735Z" fill="white"/>
<path d="M113.931 33.5658L113.085 35.8047H112.495L113.629 32.9879H114.02L113.931 33.5658ZM114.712 35.8047L113.861 33.5609L113.771 32.9879H114.17L115.302 35.8047H114.712ZM114.676 34.7602V35.1978H113.065V34.7602H114.676Z" fill="white"/>
<path d="M118.829 35.0673C118.829 35.0141 118.819 34.9665 118.8 34.9246C118.782 34.8827 118.751 34.8448 118.706 34.811C118.662 34.7755 118.602 34.7425 118.524 34.7118C118.449 34.6812 118.353 34.6522 118.237 34.6248C118.069 34.5845 117.921 34.5394 117.792 34.4894C117.664 34.4378 117.557 34.3782 117.47 34.3105C117.383 34.2428 117.317 34.163 117.272 34.0711C117.228 33.9792 117.207 33.872 117.207 33.7495C117.207 33.6319 117.232 33.5247 117.284 33.428C117.336 33.3296 117.409 33.245 117.504 33.1741C117.599 33.1015 117.712 33.0459 117.843 33.0072C117.973 32.9686 118.117 32.9492 118.273 32.9492C118.5 32.9492 118.698 32.9863 118.865 33.0604C119.033 33.1346 119.163 33.2369 119.255 33.3675C119.348 33.4965 119.395 33.6464 119.395 33.8172H118.812C118.812 33.7366 118.791 33.6641 118.749 33.5996C118.709 33.5351 118.649 33.4836 118.57 33.4449C118.491 33.4062 118.392 33.3869 118.273 33.3869C118.158 33.3869 118.064 33.4038 117.99 33.4376C117.916 33.4699 117.86 33.5126 117.823 33.5658C117.788 33.6174 117.77 33.6738 117.77 33.735C117.77 33.7834 117.78 33.8269 117.801 33.8656C117.824 33.9043 117.859 33.9397 117.908 33.972C117.956 34.0042 118.019 34.0348 118.096 34.0639C118.174 34.0929 118.268 34.1211 118.379 34.1485C118.545 34.1872 118.692 34.2331 118.819 34.2863C118.947 34.3395 119.053 34.4024 119.139 34.4749C119.224 34.5458 119.288 34.6296 119.33 34.7264C119.373 34.8215 119.395 34.9303 119.395 35.0528C119.395 35.1769 119.369 35.2881 119.317 35.3864C119.266 35.4831 119.192 35.5654 119.095 35.6331C119 35.7008 118.885 35.7531 118.752 35.7902C118.618 35.8257 118.469 35.8434 118.304 35.8434C118.159 35.8434 118.015 35.8257 117.872 35.7902C117.73 35.7548 117.602 35.6999 117.487 35.6258C117.373 35.5517 117.281 35.4574 117.211 35.3429C117.144 35.2269 117.11 35.0906 117.11 34.9343H117.695C117.695 35.0181 117.71 35.0906 117.739 35.1519C117.769 35.2115 117.812 35.2607 117.867 35.2994C117.923 35.3365 117.99 35.3639 118.067 35.3816C118.145 35.3993 118.23 35.4082 118.324 35.4082C118.441 35.4082 118.537 35.3929 118.611 35.3623C118.687 35.33 118.742 35.2881 118.776 35.2365C118.811 35.1849 118.829 35.1285 118.829 35.0673Z" fill="white"/>
<path d="M123.5 35.3429V35.8047H121.887V35.3429H123.5ZM122.071 32.9879V35.8047H121.488V32.9879H122.071ZM123.292 34.1171V34.5789H121.887V34.1171H123.292ZM123.495 32.9879V33.4521H121.887V32.9879H123.495Z" fill="white"/>
<path d="M126.691 33.5658L125.845 35.8047H125.255L126.389 32.9879H126.781L126.691 33.5658ZM127.472 35.8047L126.621 33.5609L126.532 32.9879H126.931L128.062 35.8047H127.472ZM127.436 34.7602V35.1978H125.826V34.7602H127.436Z" fill="white"/>
<path d="M130.001 32.9879H131.111C131.283 32.9879 131.438 33.0064 131.575 33.0435C131.712 33.0806 131.828 33.1354 131.923 33.2079C132.02 33.2789 132.093 33.3675 132.143 33.4739C132.195 33.5787 132.22 33.7004 132.22 33.839C132.22 33.9921 132.193 34.1235 132.138 34.2331C132.083 34.3411 132.006 34.4306 131.906 34.5015C131.806 34.5724 131.689 34.6296 131.553 34.6732L131.367 34.7747H130.388L130.383 34.3105H131.118C131.234 34.3105 131.33 34.2927 131.406 34.2573C131.481 34.2218 131.539 34.1727 131.577 34.1098C131.616 34.0453 131.635 33.9712 131.635 33.8874C131.635 33.7987 131.616 33.7221 131.577 33.6577C131.54 33.5916 131.482 33.5408 131.403 33.5053C131.326 33.4699 131.228 33.4521 131.111 33.4521H130.586V35.8047H130.001V32.9879ZM131.708 35.8047L131.012 34.5571L131.628 34.5523L132.337 35.7781V35.8047H131.708Z" fill="white"/>
<path d="M136.12 34.8666H136.705C136.691 35.0584 136.634 35.2277 136.536 35.3743C136.439 35.521 136.304 35.6363 136.13 35.7201C135.956 35.8023 135.745 35.8434 135.499 35.8434C135.307 35.8434 135.134 35.812 134.981 35.7491C134.83 35.6862 134.7 35.5968 134.592 35.4807C134.486 35.3631 134.403 35.2212 134.345 35.0552C134.289 34.8875 134.261 34.6998 134.261 34.4918V34.3032C134.261 34.0953 134.29 33.9083 134.348 33.7423C134.406 33.5746 134.49 33.432 134.599 33.3143C134.709 33.195 134.839 33.1048 134.991 33.0435C135.144 32.9807 135.316 32.9492 135.506 32.9492C135.756 32.9492 135.966 32.9919 136.137 33.0774C136.308 33.1612 136.441 33.278 136.536 33.428C136.631 33.5779 136.688 33.7495 136.708 33.943H136.125C136.115 33.8382 136.089 33.7463 136.045 33.6673C136.002 33.5867 135.936 33.5239 135.849 33.4787C135.762 33.4336 135.648 33.411 135.506 33.411C135.396 33.411 135.3 33.4304 135.218 33.4691C135.136 33.5061 135.067 33.5626 135.01 33.6383C134.955 33.7141 134.914 33.8076 134.885 33.9188C134.857 34.0284 134.843 34.1557 134.843 34.3008V34.4918C134.843 34.6337 134.856 34.7602 134.88 34.8714C134.906 34.981 134.945 35.0737 134.998 35.1495C135.051 35.2252 135.119 35.2833 135.201 35.3236C135.285 35.3623 135.384 35.3816 135.499 35.3816C135.636 35.3816 135.748 35.3631 135.835 35.326C135.922 35.2873 135.989 35.2293 136.035 35.1519C136.082 35.0745 136.11 34.9794 136.12 34.8666Z" fill="white"/>
<path d="M140.789 34.1872V34.6514H139.193V34.1872H140.789ZM139.357 32.9879V35.8047H138.775V32.9879H139.357ZM141.214 32.9879V35.8047H140.631V32.9879H141.214Z" fill="white"/>
<path d="M38.7396 25.1159H25.6426V23.3974C27.8651 23.2653 28.9764 22.7365 28.9764 21.8112V3.30473C28.9764 2.3794 27.8651 1.85065 25.6426 1.71846V0H38.7396V1.68541C37.7341 1.72947 36.8875 1.90573 36.1995 2.21417C35.5116 2.52261 35.1677 2.88613 35.1677 3.30473V21.8112C35.1677 22.2298 35.5116 22.5933 36.1995 22.9017C36.8875 23.2102 37.7341 23.3864 38.7396 23.4305V25.1159Z" fill="white"/>
<path d="M67.5787 25.1159H46.3854V23.3974C48.6079 23.2653 49.7192 22.7365 49.7192 21.8112V3.30473C49.7192 2.3794 48.6079 1.85065 46.3854 1.71846V0H59.4824V1.68541C58.477 1.72947 57.6303 1.90573 56.9424 2.21417C56.2545 2.52261 55.9105 2.88613 55.9105 3.30473V21.8112C55.9105 22.2298 56.2545 22.6264 56.9424 23.0009C57.6303 23.3754 58.4505 23.5407 59.403 23.4966C62.8955 23.3424 64.6153 20.8748 64.5624 16.094H67.5787V25.1159Z" fill="white"/>
<path d="M105.691 25.1159H92.5937V23.3974C94.7633 23.2653 95.8481 22.7365 95.8481 21.8112V7.43563L89.6568 25.1159H85.9261L79.9729 7.46868V21.8112C79.9729 22.2298 80.3169 22.5933 81.0048 22.9017C81.6927 23.2102 82.5394 23.3864 83.5448 23.4305V25.1159H72.8291V23.3974C75.0516 23.2653 76.1629 22.7365 76.1629 21.8112V3.30473C76.1629 2.3794 75.0516 1.85065 72.8291 1.71846V0H83.783L88.7836 15.1026L93.7843 0H104.976V1.68541C103.071 1.77354 102.119 2.31331 102.119 3.30473V21.8112C102.119 22.2298 102.463 22.5933 103.151 22.9017C103.839 23.2102 104.685 23.3864 105.691 23.4305V25.1159Z" fill="white"/>
<path fill-rule="evenodd" clip-rule="evenodd" d="M122.047 13.5824H124.27L129.905 12.5249C135.303 11.8199 137.975 9.8591 137.922 6.6425C137.816 2.21417 133.715 0 125.619 0H112.522V1.71846C114.745 1.85065 115.856 2.3794 115.856 3.30473V21.8112C115.856 22.7365 114.745 23.2653 112.522 23.3974V25.1159H125.619V23.4305C124.614 23.3864 123.767 23.2102 123.079 22.9017C122.391 22.5933 122.047 22.2298 122.047 21.8112V13.5824ZM126.016 1.68541C129.667 1.70744 131.466 3.3598 131.414 6.6425C131.361 8.75752 130.382 10.1896 128.477 10.9386C127.154 11.4454 125.011 11.6877 122.047 11.6657V3.30473C122.047 2.8641 122.444 2.47854 123.238 2.14807C124.032 1.8176 124.958 1.66338 126.016 1.68541Z" fill="white"/>
<path d="M143.002 23.1331V20.0927H139.827V22.6374C139.669 23.078 139.298 23.3093 138.716 23.3314C137.975 23.3534 137.605 23.111 137.605 22.6043V16.6558C137.605 14.0341 135.038 12.6571 129.905 12.5249L124.27 13.5824C126.333 13.5824 127.921 13.8798 129.032 14.4747C130.196 15.0695 130.779 15.7966 130.779 16.6558V23.1C130.779 23.761 131.361 24.2677 132.525 24.6202C133.53 24.9507 134.827 25.1159 136.414 25.1159C138.002 25.1159 139.483 24.9397 140.859 24.5872C142.288 24.2126 143.002 23.7279 143.002 23.1331Z" fill="white"/>
<mask id="mask0_504_8392" style="mask-type:alpha" maskUnits="userSpaceOnUse" x="0" y="0" width="48" height="44">
<path d="M0.134586 19.6221C0.0442772 20.3579 -0.00087738 21.0119 -0.00087738 21.5843C-0.00087738 22.1566 0.0442772 22.8106 0.134586 23.5465H4.46936C4.60482 24.5276 4.80801 25.5087 5.07894 26.4898L1.08282 28.0227C1.4892 29.2082 2.03105 30.4142 2.70836 31.6406L6.77221 30.1076C7.2689 30.9661 7.87848 31.8041 8.60094 32.6217L5.55305 35.381C6.45613 36.403 7.4721 37.3228 8.60094 38.1404L11.6488 35.381C12.5519 36.0351 13.4776 36.587 14.4258 37.0366L12.7325 40.6544C14.0871 41.3085 15.4192 41.8195 16.7286 42.1874L18.4219 38.5696C19.5056 38.8149 20.5893 38.9988 21.673 39.1215V43.0459C22.4858 43.1276 23.2082 43.1685 23.8404 43.1685C24.4725 43.1685 25.195 43.1276 26.0078 43.0459V39.1215C27.0915 38.9988 28.1752 38.8149 29.2588 38.5696L30.8844 42.1874C32.239 41.8195 33.5936 41.3085 34.9482 40.6544L33.255 37.0366C34.2032 36.587 35.1063 36.0351 35.9642 35.381L39.0798 38.1404C40.2087 37.3228 41.2246 36.403 42.1277 35.381L39.0798 32.6217C39.7571 31.8041 40.3667 30.9661 40.9086 30.1076L44.9047 31.6406C45.6271 30.4142 46.1916 29.2082 46.5979 28.0227L42.5341 26.4898C42.8502 25.5087 43.0759 24.5276 43.2114 23.5465H47.5462C47.6365 22.8106 47.6816 22.1566 47.6816 21.5843C47.6816 21.0119 47.6365 20.3579 47.5462 19.6221H43.2114C43.0759 18.641 42.8502 17.6598 42.5341 16.6787L46.5979 15.1458C46.1916 13.9603 45.6271 12.7543 44.9047 11.528L40.9086 13.0609C40.3667 12.2025 39.7571 11.3644 39.0798 10.5469L42.1277 7.7875C41.2246 6.76552 40.2087 5.84574 39.0798 5.02815L35.9642 7.7875C35.1063 7.13343 34.2032 6.58156 33.255 6.13189L34.9482 2.45276C33.5936 1.83957 32.239 1.34902 30.8844 0.981103L29.2588 4.59892C28.1752 4.31276 27.0915 4.12881 26.0078 4.04705V0.122638C25.195 0.0408793 24.4725 0 23.8404 0C23.2082 0 22.4858 0.0408793 21.673 0.122638V4.04705C20.5893 4.12881 19.5056 4.31276 18.4219 4.59892L16.7286 0.981103C15.4192 1.34902 14.0871 1.83957 12.7325 2.45276L14.4258 6.13189C13.4776 6.62244 12.5519 7.17431 11.6488 7.7875L8.60094 5.02815C7.4721 5.84574 6.45613 6.76552 5.55305 7.7875L8.60094 10.5469C7.87848 11.3644 7.2689 12.2025 6.77221 13.0609L2.70836 11.528C2.03105 12.7543 1.4892 13.9603 1.08282 15.1458L5.07894 16.6787C4.80801 17.6598 4.60482 18.641 4.46936 19.6221H0.134586ZM23.8404 11.7732C26.8205 11.7732 29.3717 12.7339 31.494 14.6552C33.6162 16.5765 34.6773 18.8862 34.6773 21.5843C34.6773 24.2823 33.6162 26.592 31.494 28.5133C29.3717 30.4346 26.8205 31.3953 23.8404 31.3953C20.8602 31.3953 18.309 30.4346 16.1868 28.5133C14.0646 26.592 13.0034 24.2823 13.0034 21.5843C13.0034 18.8862 14.0646 16.5765 16.1868 14.6552C18.309 12.7339 20.8602 11.7732 23.8404 11.7732Z" fill="#00DE4C"/>
</mask>
<g mask="url(#mask0_504_8392)">
<rect x="-2.67383" y="-1.5" width="26.371" height="26.5289" fill="#00DE4C"/>
</g>
</svg>
