<svg width="77" height="78" viewBox="0 0 77 78" fill="none" xmlns="http://www.w3.org/2000/svg">
<path fill-rule="evenodd" clip-rule="evenodd" d="M42.0021 0.999538C50.8009 1.54768 58.953 5.96996 65.0021 11.9995C72.1511 19.6735 76.0021 29.0367 76.0021 39.9995C76.0021 48.7698 72.5013 56.8737 67.0021 63.9995C61.5029 70.5773 53.8009 75.3551 45.0021 76.9995C36.2034 78.644 27.701 77.3847 20.0021 72.9995C12.3032 68.6144 6.30165 62.2217 3.00211 53.9995C-0.297419 45.7774 -0.747497 36.2217 2.00211 27.9995C4.75172 19.2292 9.3032 12.9328 17.0021 7.99954C24.1511 3.06625 33.2034 0.451395 42.0021 0.999538ZM45.0021 71.9995C52.1511 70.3551 58.0528 66.0291 63.0021 59.9995C67.4015 53.97 70.552 46.6735 70.0021 38.9995C70.0021 30.2292 67.0513 22.0291 61.0021 15.9995C55.5029 10.5181 48.701 7.54768 41.0021 6.99954C33.8531 6.45139 26.0513 7.61439 20.0021 11.9995C13.953 16.3847 9.2018 22.3255 7.00211 29.9995C4.80243 37.1254 4.70258 44.8737 8.00211 51.9995C11.3016 59.1254 16.403 65.1625 23.0021 68.9995C29.6012 72.8365 37.8531 73.644 45.0021 71.9995Z" fill="white"/>
<path fill-rule="evenodd" clip-rule="evenodd" d="M28.002 23L32.002 21L57.002 37V42L32.002 58L28.002 56V23ZM33.002 28V51L51.002 39L33.002 28Z" fill="white"/>
</svg>
