<svg width="182" height="41" viewBox="0 0 182 41" fill="none" xmlns="http://www.w3.org/2000/svg">
<path fill-rule="evenodd" clip-rule="evenodd" d="M23.1011 0C35.5834 0 45.7023 9.17816 45.7023 20.5C45.7023 31.8218 35.5834 41 23.1011 41C10.6189 41 0.5 31.8218 0.5 20.5C0.5 9.17816 10.6189 0 23.1011 0ZM15.9093 12.8857H15.7264V14.3898H15.9093C16.2878 14.3898 16.627 14.6866 16.627 15.028V26.7028C16.627 27.0673 16.2878 27.341 15.9093 27.341H15.7264V28.8464H15.9093C17.2461 28.8464 18.3169 27.8885 18.3169 26.7028V15.028C18.3169 13.8437 17.2461 12.8857 15.9093 12.8857ZM14.4178 12.8857H14.2208C12.9108 12.8857 11.8006 13.8437 11.8006 15.028V26.7028C11.8006 27.8885 12.9108 28.8464 14.2208 28.8464H14.4178V27.341H14.2208C13.8254 27.341 13.5031 27.0673 13.5031 26.7028V15.028C13.5031 14.6866 13.8254 14.3898 14.2208 14.3898H14.4178V12.8857ZM24.5912 22.0971H22.8463L24.8445 28.8464H26.5879L24.5912 22.0971ZM26.6174 12.8857H24.8726L22.565 19.5429H20.2432V28.8464H21.9317V20.9345H24.2676L23.9721 19.9983L26.6174 12.8857ZM30.9372 19.9983V22.3465L31.0358 22.4616C31.4565 22.8939 31.5845 23.4196 31.5845 23.9888V26.7028C31.5845 27.0673 31.2454 27.341 30.8654 27.341H29.6849C29.305 27.341 28.9673 27.0673 28.9673 26.7028V24.2625H27.2788V26.7028C27.2788 27.8885 28.3481 28.8464 29.6849 28.8464H30.8654C32.1755 28.8464 33.2716 27.8885 33.2716 26.7028V23.9888C33.2716 23.0999 33.0324 22.257 32.4007 21.574L30.9372 19.9983ZM30.8654 12.8857H29.6849C28.3749 12.8857 27.2788 13.8654 27.2788 15.028V16.8762C27.2788 17.7638 27.5039 18.6093 28.123 19.291L29.6287 20.9345V18.5389L29.502 18.4033C29.094 17.9467 28.9673 17.4454 28.9673 16.8762V15.028C28.9673 14.6866 29.305 14.3898 29.6849 14.3898H30.8654C31.2454 14.3898 31.5845 14.6866 31.5845 15.028V16.8071H33.2716V15.028C33.2716 13.8437 32.1755 12.8857 30.8654 12.8857ZM21.9317 12.8857H20.2432V18.379H21.9317V12.8857Z" fill="white"/>
<path d="M57.5919 17.8973L57.5919 15.0173L59.4838 15.0173C60.3569 15.0173 61.0868 14.7513 61.6733 14.2193C62.2598 13.6873 62.5531 13.0333 62.5531 12.2573C62.5531 11.4733 62.2598 10.8173 61.6733 10.2893C61.0868 9.76125 60.3569 9.49725 59.4838 9.49725L56.0705 9.49725L56.0705 17.8973L57.5919 17.8973ZM59.4838 13.7213L57.5919 13.7213L57.5919 10.7933L59.4838 10.7933C59.9336 10.7933 60.304 10.9313 60.5951 11.2073C60.8861 11.4833 61.0317 11.8333 61.0317 12.2573C61.0317 12.6813 60.8861 13.0313 60.5951 13.3073C60.304 13.5833 59.9336 13.7213 59.4838 13.7213ZM66.7073 18.0533C67.7128 18.0533 68.4845 17.7133 69.0225 17.0333L69.0225 17.8973L70.4513 17.8973L70.4513 11.8973L69.0225 11.8973L69.0225 12.7493C68.4845 12.0773 67.7128 11.7413 66.7073 11.7413C65.7988 11.7413 65.0227 12.0453 64.3788 12.6533C63.735 13.2613 63.413 14.0093 63.413 14.8973C63.413 15.7773 63.735 16.5233 64.3788 17.1353C65.0227 17.7473 65.7988 18.0533 66.7073 18.0533ZM66.9322 16.8173C66.3324 16.8173 65.8341 16.6373 65.4372 16.2773C65.0403 15.9093 64.8419 15.4493 64.8419 14.8973C64.8419 14.3453 65.0403 13.8873 65.4372 13.5233C65.8341 13.1593 66.3324 12.9773 66.9322 12.9773C67.5319 12.9773 68.0303 13.1593 68.4272 13.5233C68.8241 13.8873 69.0225 14.3453 69.0225 14.8973C69.0225 15.4493 68.8241 15.9073 68.4272 16.2713C68.0303 16.6353 67.5319 16.8173 66.9322 16.8173ZM74.288 18.0533C75.1083 18.0533 75.7477 17.8813 76.2063 17.5373C76.665 17.1933 76.8943 16.7653 76.8943 16.2533C76.8943 15.5893 76.5415 15.1133 75.8359 14.8253C76.3474 14.5373 76.6032 14.0933 76.6032 13.4933C76.6032 13.0053 76.3849 12.5913 75.9483 12.2513C75.5118 11.9113 74.923 11.7413 74.1822 11.7413C73.0003 11.7413 72.1624 12.1893 71.6685 13.0853L72.8327 13.6853C73.0885 13.1573 73.5471 12.8933 74.2086 12.8933C74.5173 12.8933 74.7643 12.9593 74.9495 13.0913C75.1347 13.2233 75.2273 13.3933 75.2273 13.6013C75.2273 13.8173 75.1457 13.9873 74.9826 14.1113C74.8194 14.2353 74.5923 14.2973 74.3012 14.2973L73.6 14.2973L73.6 15.4373L74.5394 15.4373C74.8392 15.4373 75.073 15.4993 75.2406 15.6233C75.4081 15.7473 75.4919 15.9133 75.4919 16.1213C75.4919 16.3533 75.3861 16.5393 75.1744 16.6793C74.9627 16.8193 74.6717 16.8893 74.3012 16.8893C73.5074 16.8893 72.9915 16.5893 72.7533 15.9893L71.5891 16.6133C72.0566 17.5733 72.9562 18.0533 74.288 18.0533ZM79.4873 20.2973L79.4873 17.0453C80.0254 17.7173 80.7971 18.0533 81.8026 18.0533C82.711 18.0533 83.4872 17.7493 84.131 17.1413C84.7749 16.5333 85.0968 15.7853 85.0968 14.8973C85.0968 14.0173 84.7749 13.2713 84.131 12.6593C83.4872 12.0473 82.711 11.7413 81.8026 11.7413C80.7971 11.7413 80.0254 12.0813 79.4873 12.7613L79.4873 11.8973L78.0585 11.8973L78.0585 20.2973L79.4873 20.2973ZM81.5777 16.8173C80.9779 16.8173 80.4796 16.6373 80.0827 16.2773C79.6858 15.9093 79.4873 15.4493 79.4873 14.8973C79.4873 14.3453 79.6858 13.8873 80.0827 13.5233C80.4796 13.1593 80.9779 12.9773 81.5777 12.9773C82.1774 12.9773 82.6757 13.1593 83.0726 13.5233C83.4695 13.8873 83.668 14.3453 83.668 14.8973C83.668 15.4493 83.4695 15.9073 83.0726 16.2713C82.6757 16.6353 82.1774 16.8173 81.5777 16.8173ZM89.3171 18.0533C90.3226 18.0533 91.0943 17.7133 91.6324 17.0333L91.6324 17.8973L93.0612 17.8973L93.0612 11.8973L91.6324 11.8973L91.6324 12.7493C91.0943 12.0773 90.3226 11.7413 89.3171 11.7413C88.4087 11.7413 87.6325 12.0453 86.9887 12.6533C86.3448 13.2613 86.0229 14.0093 86.0229 14.8973C86.0229 15.7773 86.3448 16.5233 86.9887 17.1353C87.6325 17.7473 88.4087 18.0533 89.3171 18.0533ZM89.542 16.8173C88.9423 16.8173 88.444 16.6373 88.0471 16.2773C87.6502 15.9093 87.4517 15.4493 87.4517 14.8973C87.4517 14.3453 87.6502 13.8873 88.0471 13.5233C88.444 13.1593 88.9423 12.9773 89.542 12.9773C90.1418 12.9773 90.6401 13.1593 91.037 13.5233C91.4339 13.8873 91.6324 14.3453 91.6324 14.8973C91.6324 15.4493 91.4339 15.9073 91.037 16.2713C90.6401 16.6353 90.1418 16.8173 89.542 16.8173ZM97.7975 18.0533C98.7765 18.0533 99.5725 17.7893 100.185 17.2613C100.798 16.7333 101.105 16.0613 101.105 15.2453C101.105 14.4453 100.816 13.7933 100.238 13.2893C99.6607 12.7853 98.9838 12.5333 98.2076 12.5333C97.2992 12.5333 96.5803 12.8053 96.0511 13.3493C96.157 13.0213 96.3444 12.7473 96.6134 12.5273C96.8824 12.3073 97.308 12.0933 97.8901 11.8853C98.2164 11.7653 98.4391 11.6813 98.5582 11.6333C98.6773 11.5853 98.8647 11.5053 99.1205 11.3933C99.3762 11.2813 99.5593 11.1853 99.6695 11.1053C99.7798 11.0253 99.9098 10.9213 100.06 10.7933C100.21 10.6653 100.324 10.5273 100.404 10.3793C100.483 10.2313 100.54 10.0693 100.576 9.89325L99.4115 9.28125C99.3586 9.46525 99.288 9.62325 99.1998 9.75525C99.1116 9.88725 98.9749 10.0113 98.7897 10.1273C98.6045 10.2433 98.4502 10.3313 98.3267 10.3913C98.2032 10.4513 97.9761 10.5493 97.6453 10.6853C97.3146 10.8213 97.0654 10.9253 96.8978 10.9973C95.8747 11.4533 95.1956 11.9593 94.8604 12.5153C94.5253 13.0713 94.3577 13.8573 94.3577 14.8733C94.3577 15.8013 94.6774 16.5633 95.3169 17.1593C95.9563 17.7553 96.7832 18.0533 97.7975 18.0533ZM97.7843 16.8413C97.2462 16.8413 96.792 16.6853 96.4216 16.3733C96.0511 16.0613 95.8659 15.6653 95.8659 15.1853C95.8659 14.7133 96.0644 14.3353 96.4613 14.0513C96.8582 13.7673 97.3036 13.6253 97.7975 13.6253C98.3531 13.6253 98.8052 13.7773 99.1535 14.0813C99.5019 14.3853 99.6761 14.7733 99.6761 15.2453C99.6761 15.7093 99.4997 16.0913 99.1469 16.3913C98.7941 16.6913 98.3399 16.8413 97.7843 16.8413ZM105.352 18.0533C106.331 18.0533 107.158 17.7493 107.832 17.1413C108.507 16.5333 108.844 15.7853 108.844 14.8973C108.844 14.0093 108.507 13.2613 107.832 12.6533C107.158 12.0453 106.331 11.7413 105.352 11.7413C104.382 11.7413 103.557 12.0453 102.878 12.6533C102.199 13.2613 101.859 14.0093 101.859 14.8973C101.859 15.7853 102.199 16.5333 102.878 17.1413C103.557 17.7493 104.382 18.0533 105.352 18.0533ZM105.352 16.7933C104.77 16.7933 104.28 16.6133 103.883 16.2533C103.486 15.8933 103.288 15.4413 103.288 14.8973C103.288 14.3533 103.486 13.9013 103.883 13.5413C104.28 13.1813 104.77 13.0013 105.352 13.0013C105.934 13.0013 106.423 13.1813 106.82 13.5413C107.217 13.9013 107.416 14.3533 107.416 14.8973C107.416 15.4413 107.217 15.8933 106.82 16.2533C106.423 16.6133 105.934 16.7933 105.352 16.7933ZM113.038 17.8973L113.038 13.1453L115.195 13.1453L115.195 11.8973L109.44 11.8973L109.44 13.1453L111.609 13.1453L111.609 17.8973L113.038 17.8973ZM117.589 17.8973L117.589 15.1253L120.301 17.8973L122.008 17.8973L118.992 14.8373L121.902 11.8973L120.156 11.8973L117.589 14.5493L117.589 11.8973L116.161 11.8973L116.161 17.8973L117.589 17.8973ZM125.898 18.0533C126.903 18.0533 127.675 17.7133 128.213 17.0333L128.213 17.8973L129.642 17.8973L129.642 11.8973L128.213 11.8973L128.213 12.7493C127.675 12.0773 126.903 11.7413 125.898 11.7413C124.989 11.7413 124.213 12.0453 123.569 12.6533C122.925 13.2613 122.603 14.0093 122.603 14.8973C122.603 15.7773 122.925 16.5233 123.569 17.1353C124.213 17.7473 124.989 18.0533 125.898 18.0533ZM126.123 16.8173C125.523 16.8173 125.025 16.6373 124.628 16.2773C124.231 15.9093 124.032 15.4493 124.032 14.8973C124.032 14.3453 124.231 13.8873 124.628 13.5233C125.025 13.1593 125.523 12.9773 126.123 12.9773C126.722 12.9773 127.221 13.1593 127.618 13.5233C128.015 13.8873 128.213 14.3453 128.213 14.8973C128.213 15.4493 128.015 15.9073 127.618 16.2713C127.221 16.6353 126.722 16.8173 126.123 16.8173ZM137.738 18.0533C138.382 18.0533 138.969 17.9133 139.498 17.6333C140.027 17.3533 140.433 16.9733 140.715 16.4933L139.485 15.8573C139.326 16.1373 139.09 16.3613 138.777 16.5293C138.464 16.6973 138.113 16.7813 137.725 16.7813C137.143 16.7813 136.656 16.6013 136.263 16.2413C135.871 15.8813 135.675 15.4333 135.675 14.8973C135.675 14.3613 135.871 13.9133 136.263 13.5533C136.656 13.1933 137.143 13.0133 137.725 13.0133C138.122 13.0133 138.473 13.0953 138.777 13.2593C139.081 13.4233 139.308 13.6493 139.458 13.9373L140.689 13.2893C140.424 12.8173 140.027 12.4413 139.498 12.1613C138.969 11.8813 138.382 11.7413 137.738 11.7413C136.742 11.7413 135.911 12.0433 135.245 12.6473C134.579 13.2513 134.246 14.0013 134.246 14.8973C134.246 15.7853 134.579 16.5333 135.245 17.1413C135.911 17.7493 136.742 18.0533 137.738 18.0533ZM144.711 18.0533C145.716 18.0533 146.488 17.7133 147.026 17.0333L147.026 17.8973L148.455 17.8973L148.455 11.8973L147.026 11.8973L147.026 12.7493C146.488 12.0773 145.716 11.7413 144.711 11.7413C143.802 11.7413 143.026 12.0453 142.382 12.6533C141.738 13.2613 141.416 14.0093 141.416 14.8973C141.416 15.7773 141.738 16.5233 142.382 17.1353C143.026 17.7473 143.802 18.0533 144.711 18.0533ZM144.936 16.8173C144.336 16.8173 143.837 16.6373 143.441 16.2773C143.044 15.9093 142.845 15.4493 142.845 14.8973C142.845 14.3453 143.044 13.8873 143.441 13.5233C143.837 13.1593 144.336 12.9773 144.936 12.9773C145.535 12.9773 146.034 13.1593 146.43 13.5233C146.827 13.8873 147.026 14.3453 147.026 14.8973C147.026 15.4493 146.827 15.9073 146.43 16.2713C146.034 16.6353 145.535 16.8173 144.936 16.8173ZM154.911 11.0573L154.911 9.92925L151.206 9.92925L151.206 11.0573L154.911 11.0573ZM151.22 17.8973L154.607 14.0813L154.607 17.8973L156.009 17.8973L156.009 11.8973L154.911 11.8973L151.524 15.7013L151.524 11.8973L150.122 11.8973L150.122 17.8973L151.22 17.8973ZM160.56 17.8973L160.56 13.1453L162.716 13.1453L162.716 11.8973L156.961 11.8973L156.961 13.1453L159.131 13.1453L159.131 17.8973L160.56 17.8973ZM166.606 18.0533C167.612 18.0533 168.383 17.7133 168.921 17.0333L168.921 17.8973L170.35 17.8973L170.35 11.8973L168.921 11.8973L168.921 12.7493C168.383 12.0773 167.612 11.7413 166.606 11.7413C165.698 11.7413 164.921 12.0453 164.278 12.6533C163.634 13.2613 163.312 14.0093 163.312 14.8973C163.312 15.7773 163.634 16.5233 164.278 17.1353C164.921 17.7473 165.698 18.0533 166.606 18.0533ZM166.831 16.8173C166.231 16.8173 165.733 16.6373 165.336 16.2773C164.939 15.9093 164.741 15.4493 164.741 14.8973C164.741 14.3453 164.939 13.8873 165.336 13.5233C165.733 13.1593 166.231 12.9773 166.831 12.9773C167.431 12.9773 167.929 13.1593 168.326 13.5233C168.723 13.8873 168.921 14.3453 168.921 14.8973C168.921 15.4493 168.723 15.9073 168.326 16.2713C167.929 16.6353 167.431 16.8173 166.831 16.8173ZM60.4099 32.0533C61.7505 32.0533 62.8839 31.6333 63.8099 30.7933C64.7449 29.9453 65.2123 28.9133 65.2123 27.6973C65.2123 26.4813 64.7471 25.4513 63.8166 24.6073C62.8861 23.7633 61.7505 23.3413 60.4099 23.3413C59.0692 23.3413 57.9337 23.7633 57.0032 24.6073C56.0727 25.4513 55.6074 26.4813 55.6074 27.6973C55.6074 28.9133 56.0727 29.9433 57.0032 30.7873C57.9337 31.6313 59.0692 32.0533 60.4099 32.0533ZM60.4099 30.7093C59.4838 30.7093 58.7032 30.4253 58.0682 29.8573C57.442 29.2813 57.1289 28.5613 57.1289 27.6973C57.1289 26.8333 57.4442 26.1153 58.0748 25.5433C58.7054 24.9713 59.4838 24.6853 60.4099 24.6853C61.336 24.6853 62.1143 24.9713 62.7449 25.5433C63.3756 26.1153 63.6909 26.8333 63.6909 27.6973C63.6909 28.5613 63.3756 29.2793 62.7449 29.8513C62.1143 30.4233 61.336 30.7093 60.4099 30.7093ZM68.1229 31.8973L68.1229 27.9013L71.7743 31.8973L73.5868 31.8973L69.7105 27.5893L73.4545 23.4973L71.642 23.4973L68.1229 27.2653L68.1229 23.4973L66.6014 23.4973L66.6014 31.8973L68.1229 31.8973ZM77.6616 32.0533C78.6406 32.0533 79.4322 31.8313 80.0364 31.3873C80.6405 30.9433 80.9426 30.3413 80.9426 29.5813C80.9426 29.3093 80.9073 29.0653 80.8368 28.8493C80.7662 28.6333 80.645 28.4413 80.473 28.2733C80.301 28.1053 80.14 27.9653 79.9901 27.8533C79.8401 27.7413 79.6174 27.6293 79.322 27.5173C79.0265 27.4053 78.7972 27.3233 78.634 27.2713C78.4708 27.2193 78.2129 27.1413 77.8601 27.0373C77.1545 26.8373 76.6672 26.6473 76.3982 26.4673C76.1292 26.2873 75.9947 26.0413 75.9947 25.7293C75.9947 25.4093 76.127 25.1553 76.3915 24.9673C76.6561 24.7793 77.0089 24.6853 77.4499 24.6853C78.3584 24.6853 79.0067 25.0773 79.3947 25.8613L80.678 25.1893C80.3781 24.6133 79.9504 24.1613 79.3947 23.8333C78.8391 23.5053 78.1908 23.3413 77.4499 23.3413C76.6297 23.3413 75.9285 23.5593 75.3464 23.9953C74.7643 24.4313 74.4732 25.0213 74.4732 25.7653C74.4732 26.1413 74.5482 26.4693 74.6981 26.7493C74.8481 27.0293 75.0752 27.2633 75.3795 27.4513C75.6837 27.6393 75.9726 27.7853 76.246 27.8893C76.5194 27.9933 76.8766 28.1053 77.3176 28.2253C78.1026 28.4413 78.6494 28.6393 78.9581 28.8193C79.2668 28.9993 79.4212 29.2613 79.4212 29.6053C79.4212 29.9333 79.2779 30.1993 78.9912 30.4033C78.7046 30.6073 78.2746 30.7093 77.7013 30.7093C76.5371 30.7093 75.7697 30.2373 75.3993 29.2933L74.0896 29.9893C74.3365 30.6293 74.7709 31.1333 75.3927 31.5013C76.0145 31.8693 76.7708 32.0533 77.6616 32.0533ZM88.9864 31.8973L88.9864 24.8173L91.5927 24.8173L91.5927 23.4973L84.8454 23.4973L84.8454 24.8173L87.4649 24.8173L87.4649 31.8973L88.9864 31.8973ZM98.3399 31.8973L98.3399 30.5773L94.2386 30.5773L94.2386 28.3093L97.943 28.3093L97.943 27.0013L94.2386 27.0013L94.2386 24.8173L98.2738 24.8173L98.2738 23.4973L92.7172 23.4973L92.7172 31.8973L98.3399 31.8973ZM104.108 32.0533C104.955 32.0533 105.733 31.8713 106.443 31.5073C107.153 31.1433 107.702 30.6533 108.09 30.0373L106.767 29.3533C106.529 29.7693 106.172 30.0993 105.696 30.3433C105.219 30.5873 104.69 30.7093 104.108 30.7093C103.12 30.7093 102.32 30.4253 101.707 29.8573C101.094 29.2893 100.787 28.5693 100.787 27.6973C100.787 26.8253 101.094 26.1053 101.707 25.5373C102.32 24.9693 103.12 24.6853 104.108 24.6853C104.69 24.6853 105.217 24.8073 105.689 25.0513C106.161 25.2953 106.52 25.6253 106.767 26.0413L108.09 25.3453C107.693 24.7293 107.14 24.2413 106.43 23.8813C105.72 23.5213 104.946 23.3413 104.108 23.3413C102.715 23.3413 101.559 23.7593 100.642 24.5953C99.7246 25.4313 99.266 26.4653 99.266 27.6973C99.266 28.9293 99.7246 29.9633 100.642 30.7993C101.559 31.6353 102.715 32.0533 104.108 32.0533ZM110.935 31.8973L110.935 28.2613L114.904 28.2613L114.904 31.8973L116.425 31.8973L116.425 23.4973L114.904 23.4973L114.904 26.9413L110.935 26.9413L110.935 23.4973L109.413 23.4973L109.413 31.8973L110.935 31.8973ZM119.799 31.8973L119.799 26.1973L124.165 31.8973L125.355 31.8973L125.355 23.4973L123.834 23.4973L123.834 29.1973L119.468 23.4973L118.277 23.4973L118.277 31.8973L119.799 31.8973ZM131.547 32.0533C132.888 32.0533 134.021 31.6333 134.947 30.7933C135.882 29.9453 136.349 28.9133 136.349 27.6973C136.349 26.4813 135.884 25.4513 134.954 24.6073C134.023 23.7633 132.888 23.3413 131.547 23.3413C130.206 23.3413 129.071 23.7633 128.14 24.6073C127.21 25.4513 126.744 26.4813 126.744 27.6973C126.744 28.9133 127.21 29.9433 128.14 30.7873C129.071 31.6313 130.206 32.0533 131.547 32.0533ZM131.547 30.7093C130.621 30.7093 129.84 30.4253 129.205 29.8573C128.579 29.2813 128.266 28.5613 128.266 27.6973C128.266 26.8333 128.581 26.1153 129.212 25.5433C129.842 24.9713 130.621 24.6853 131.547 24.6853C132.473 24.6853 133.251 24.9713 133.882 25.5433C134.513 26.1153 134.828 26.8333 134.828 27.6973C134.828 28.5613 134.513 29.2793 133.882 29.8513C133.251 30.4233 132.473 30.7093 131.547 30.7093ZM143.03 31.8973L143.03 30.5773L139.26 30.5773L139.26 23.4973L137.738 23.4973L137.738 31.8973L143.03 31.8973ZM148.494 32.0533C149.835 32.0533 150.968 31.6333 151.894 30.7933C152.829 29.9453 153.297 28.9133 153.297 27.6973C153.297 26.4813 152.832 25.4513 151.901 24.6073C150.971 23.7633 149.835 23.3413 148.494 23.3413C147.154 23.3413 146.018 23.7633 145.088 24.6073C144.157 25.4513 143.692 26.4813 143.692 27.6973C143.692 28.9133 144.157 29.9433 145.088 30.7873C146.018 31.6313 147.154 32.0533 148.494 32.0533ZM148.494 30.7093C147.568 30.7093 146.788 30.4253 146.153 29.8573C145.526 29.2813 145.213 28.5613 145.213 27.6973C145.213 26.8333 145.529 26.1153 146.159 25.5433C146.79 24.9713 147.568 24.6853 148.494 24.6853C149.42 24.6853 150.199 24.9713 150.829 25.5433C151.46 26.1153 151.775 26.8333 151.775 27.6973C151.775 28.5613 151.46 29.2793 150.829 29.8513C150.199 30.4233 149.42 30.7093 148.494 30.7093ZM159.158 32.0533C160.507 32.0533 161.601 31.6873 162.439 30.9553C163.277 30.2233 163.695 29.2813 163.695 28.1293L163.695 27.5533L159.065 27.5533L159.065 28.7893L162.161 28.7893C162.02 29.3733 161.691 29.8393 161.175 30.1873C160.659 30.5353 159.991 30.7093 159.171 30.7093C158.148 30.7093 157.321 30.4253 156.69 29.8573C156.06 29.2893 155.744 28.5733 155.744 27.7093C155.744 26.8453 156.057 26.1253 156.684 25.5493C157.31 24.9733 158.108 24.6853 159.078 24.6853C159.678 24.6853 160.22 24.8073 160.706 25.0513C161.191 25.2953 161.557 25.6173 161.804 26.0173L163.113 25.3333C162.716 24.7253 162.161 24.2413 161.446 23.8813C160.732 23.5213 159.943 23.3413 159.078 23.3413C157.702 23.3413 156.549 23.7633 155.619 24.6073C154.688 25.4513 154.223 26.4813 154.223 27.6973C154.223 28.9213 154.688 29.9533 155.619 30.7933C156.549 31.6333 157.729 32.0533 159.158 32.0533ZM166.606 31.8973L166.606 23.4973L165.085 23.4973L165.085 31.8973L166.606 31.8973ZM174.081 31.8973L174.081 30.5773L169.98 30.5773L169.98 28.3093L173.684 28.3093L173.684 27.0013L169.98 27.0013L169.98 24.8173L174.015 24.8173L174.015 23.4973L168.458 23.4973L168.458 31.8973L174.081 31.8973ZM178.553 32.0533C179.532 32.0533 180.323 31.8313 180.927 31.3873C181.532 30.9433 181.834 30.3413 181.834 29.5813C181.834 29.3093 181.798 29.0653 181.728 28.8493C181.657 28.6333 181.536 28.4413 181.364 28.2733C181.192 28.1053 181.031 27.9653 180.881 27.8533C180.731 27.7413 180.508 27.6293 180.213 27.5173C179.917 27.4053 179.688 27.3233 179.525 27.2713C179.362 27.2193 179.104 27.1413 178.751 27.0373C178.045 26.8373 177.558 26.6473 177.289 26.4673C177.02 26.2873 176.886 26.0413 176.886 25.7293C176.886 25.4093 177.018 25.1553 177.283 24.9673C177.547 24.7793 177.9 24.6853 178.341 24.6853C179.249 24.6853 179.898 25.0773 180.286 25.8613L181.569 25.1893C181.269 24.6133 180.841 24.1613 180.286 23.8333C179.73 23.5053 179.082 23.3413 178.341 23.3413C177.521 23.3413 176.819 23.5593 176.237 23.9953C175.655 24.4313 175.364 25.0213 175.364 25.7653C175.364 26.1413 175.439 26.4693 175.589 26.7493C175.739 27.0293 175.966 27.2633 176.27 27.4513C176.575 27.6393 176.864 27.7853 177.137 27.8893C177.41 27.9933 177.768 28.1053 178.209 28.2253C178.994 28.4413 179.54 28.6393 179.849 28.8193C180.158 28.9993 180.312 29.2613 180.312 29.6053C180.312 29.9333 180.169 30.1993 179.882 30.4033C179.596 30.6073 179.166 30.7093 178.592 30.7093C177.428 30.7093 176.661 30.2373 176.29 29.2933L174.981 29.9893C175.228 30.6293 175.662 31.1333 176.284 31.5013C176.905 31.8693 177.662 32.0533 178.553 32.0533Z" fill="white"/>
</svg>
