<svg width="19" height="18" viewBox="0 0 19 18" fill="none" xmlns="http://www.w3.org/2000/svg">
<path d="M17.9995 12.9791V15.3877C18.0004 15.6113 17.9517 15.8327 17.8563 16.0375C17.7609 16.2424 17.6211 16.4263 17.4457 16.5775C17.2702 16.7286 17.0632 16.8437 16.8376 16.9154C16.6121 16.987 16.3732 17.0136 16.1361 16.9935C13.5059 16.725 10.9794 15.8808 8.75957 14.5286C6.69433 13.2959 4.94337 11.6512 3.63104 9.71135C2.18648 7.61679 1.28751 5.23206 1.00694 2.75036C0.985578 2.52834 1.01367 2.30457 1.08942 2.0933C1.16518 1.88203 1.28693 1.6879 1.44694 1.52325C1.60694 1.35861 1.80169 1.22706 2.01879 1.13699C2.23589 1.04691 2.47057 1.00029 2.7079 1.00008H5.27217C5.68698 0.996243 6.08913 1.13422 6.40366 1.3883C6.71818 1.64237 6.92362 1.99521 6.98168 2.38103C7.08991 3.15185 7.29063 3.9087 7.58001 4.63713C7.69501 4.9245 7.7199 5.23682 7.65173 5.53707C7.58355 5.83732 7.42518 6.11292 7.19537 6.33121L6.10983 7.35087C7.32662 9.36092 9.09844 11.0252 11.2384 12.1682L12.3239 11.1485C12.5563 10.9326 12.8497 10.7839 13.1694 10.7198C13.489 10.6558 13.8215 10.6792 14.1274 10.7872C14.9029 11.059 15.7087 11.2476 16.5293 11.3492C16.9445 11.4042 17.3237 11.6007 17.5948 11.9012C17.8658 12.2017 18.0099 12.5853 17.9995 12.9791Z" stroke="black" strokeWidth="1.3" strokeLinecap="round" strokeLinejoin="round"/>
</svg>
