<svg width="80" height="80" viewBox="0 0 80 80" fill="none" xmlns="http://www.w3.org/2000/svg">
<circle cx="40" cy="40" r="40" fill="#FDDCDC"/>
<g clip-path="url(#clip0_497_7555)">
<path d="M29.9883 26.4414H49.1656V27.64H29.9883V26.4414Z" fill="#E04848"/>
<path d="M29.9883 28.8398H49.1656V30.0384H29.9883V28.8398Z" fill="#E04848"/>
<path d="M29.9883 31.2344H49.1656V32.4329H29.9883V31.2344Z" fill="#E04848"/>
<path d="M29.9883 33.6328H46.7685V34.8314H29.9883V33.6328Z" fill="#E04848"/>
<path d="M29.9883 36.0312H45.57V37.2298H29.9883V36.0312Z" fill="#E04848"/>
<path d="M29.9883 38.4277H44.3712V39.6263H29.9883V38.4277Z" fill="#E04848"/>
<path d="M52.1635 48.6151C51.8327 48.6151 51.5642 48.8831 51.5642 49.2144V54.6081C51.5642 55.6008 50.7593 56.4059 49.7664 56.4059C48.7734 56.4059 47.9685 55.6008 47.9685 54.6081V52.2108C47.9685 51.8795 47.7001 51.6115 47.3693 51.6115H27.5926V24.6433C27.625 23.6217 28.4765 22.8185 29.4983 22.8454H52.179C51.7825 23.361 51.5666 23.9929 51.5642 24.6433V30.037C51.5642 30.3681 51.8327 30.6363 52.1635 30.6363C52.4945 30.6363 52.7628 30.3681 52.7628 30.037V27.6399H56.9579C57.2888 27.6399 57.5572 27.3714 57.5572 27.0406V24.6433C57.5551 22.9892 56.2149 21.6488 54.5606 21.6469H29.4983C27.8149 21.6199 26.4267 22.9599 26.3941 24.6433V51.6115H22.1989C21.8678 51.6115 21.5996 51.8795 21.5996 52.2108V54.6081C21.6017 56.262 22.9419 57.6024 24.596 57.6045H49.7664C51.4205 57.6024 52.7609 56.262 52.7628 54.6081V49.2144C52.7628 48.8831 52.4945 48.6151 52.1635 48.6151ZM56.3587 24.6433V26.4413H52.7628V24.6433C52.7628 23.6501 53.5679 22.8454 54.5606 22.8454C55.5535 22.8454 56.3587 23.6501 56.3587 24.6433ZM22.7982 54.6081V52.81H46.77V54.6081C46.7723 55.2585 46.9883 55.8899 47.3847 56.4059H24.596C23.6033 56.4059 22.7982 55.6008 22.7982 54.6081Z" fill="#E04848"/>
<path d="M56.9578 41.4238H32.986C32.6552 41.4238 32.3867 41.6918 32.3867 42.0231V46.8176C32.3867 47.1484 32.6552 47.4168 32.986 47.4168H56.9578C57.2886 47.4168 57.5571 47.1484 57.5571 46.8176V42.0231C57.5571 41.6918 57.2886 41.4238 56.9578 41.4238ZM56.3585 46.2183H33.5853V42.6224H34.7838V43.2217H35.9826V42.6224H37.1812V43.2217H38.3797V42.6224H39.5783V43.2217H40.7768V42.6224H41.9754V43.2217H43.174V42.6224H44.3725V43.2217H45.5713V42.6224H46.7699V43.2217H47.9684V42.6224H49.167V43.2217H50.3655V42.6224H51.5641V43.2217H52.7626V42.6224H53.9612V43.2217H55.16V42.6224H56.3585V46.2183Z" fill="#E04848"/>
<path d="M46.0561 40.9386C46.1372 40.9386 46.2174 40.9221 46.2917 40.8898L49.2466 39.6249L49.2557 39.6204C49.3179 39.5928 49.3751 39.5543 49.4241 39.5067C49.4299 39.5013 49.4379 39.4997 49.4438 39.4936L56.226 32.7119L57.0733 31.8645C57.7757 31.1625 57.7757 30.024 57.0733 29.3216C56.362 28.6428 55.2427 28.6428 54.5313 29.3216L53.6833 30.1691L46.9036 36.9488C46.8973 36.9549 46.8957 36.9626 46.8903 36.9687C46.8427 37.0177 46.804 37.0747 46.7763 37.137L46.7705 37.1459L45.5053 40.1041C45.4261 40.2891 45.4453 40.5015 45.556 40.6699C45.6669 40.8377 45.8547 40.9388 46.0561 40.939V40.9386ZM47.1946 39.2005L47.5273 38.4214L47.9707 38.865L47.1946 39.2005ZM55.3793 30.1691C55.6161 29.9427 55.9892 29.9427 56.226 30.1691C56.46 30.4031 56.46 30.7825 56.226 31.0165L55.8023 31.4408L54.9543 30.5928L55.3793 30.1691ZM54.1069 31.4401L54.955 32.2882L49.0217 38.2212L48.1737 37.3731L54.1069 31.4401Z" fill="#E04848"/>
</g>
<defs>
<clipPath id="clip0_497_7555">
<rect width="36" height="36" fill="white" transform="translate(21.5996 21.5996)"/>
</clipPath>
</defs>
</svg>
