<svg width="71" height="57" viewBox="0 0 71 57" fill="none" xmlns="http://www.w3.org/2000/svg">
<path opacity="0.2" d="M17.4065 57C14.0473 57 11.2989 56.3214 9.16129 54.9643C7.02366 53.6071 5.26774 51.873 3.89355 49.7619C2.36667 47.1984 1.29785 44.5595 0.687097 41.8452C0.229033 38.9802 0 36.6429 0 34.8333C0 27.4444 1.9086 20.7341 5.72581 14.7024C9.54301 8.67064 15.4978 3.76985 23.5903 0L25.6516 4.07143C20.9183 6.03175 16.7957 9.12302 13.2839 13.3452C9.92473 17.5675 8.24516 21.8651 8.24516 26.2381C8.24516 28.0476 8.47419 29.631 8.93226 30.9881C11.3753 29.0278 14.2 28.0476 17.4065 28.0476C21.3763 28.0476 24.8118 29.3294 27.7129 31.8929C30.614 34.4564 32.0645 38 32.0645 42.5238C32.0645 46.746 30.614 50.2143 27.7129 52.9286C24.8118 55.6429 21.3763 57 17.4065 57ZM56.3419 57C52.9828 57 50.2344 56.3214 48.0968 54.9643C45.9591 53.6071 44.2032 51.873 42.829 49.7619C41.3022 47.1984 40.2333 44.5595 39.6226 41.8452C39.1645 38.9802 38.9355 36.6429 38.9355 34.8333C38.9355 27.4444 40.8441 20.7341 44.6613 14.7024C48.4785 8.67064 54.4333 3.76985 62.5258 0L64.5871 4.07143C59.8538 6.03175 55.7312 9.12302 52.2194 13.3452C48.8602 17.5675 47.1806 21.8651 47.1806 26.2381C47.1806 28.0476 47.4097 29.631 47.8677 30.9881C50.3107 29.0278 53.1355 28.0476 56.3419 28.0476C60.3118 28.0476 63.7473 29.3294 66.6484 31.8929C69.5495 34.4564 71 38 71 42.5238C71 46.746 69.5495 50.2143 66.6484 52.9286C63.7473 55.6429 60.3118 57 56.3419 57Z" fill="#1147AB"/>
</svg>
