<svg width="80" height="80" viewBox="0 0 80 80" fill="none" xmlns="http://www.w3.org/2000/svg">
<circle cx="40" cy="40" r="40" fill="#C9D9F7"/>
<path d="M51.08 47.9177C50.7877 47.9177 50.5506 48.1545 50.5506 48.4471V54.3901C50.5506 54.8688 50.1608 55.2586 49.6818 55.2586H28.5878C28.1088 55.2586 27.719 54.8688 27.719 54.3901V24.8102C27.719 24.3315 28.1088 23.9416 28.5878 23.9416H44.5707V28.301C44.5707 28.909 45.0652 29.4033 45.673 29.4033H50.5506V32.9985C50.5506 33.2911 50.7877 33.5279 51.08 33.5279C51.3724 33.5279 51.6095 33.2911 51.6095 32.9985V28.8744C51.6095 28.7644 51.5493 28.5921 51.442 28.4905C51.3885 28.4397 45.5111 23.0668 45.4579 23.0214C45.4577 23.0212 45.4574 23.0211 45.4572 23.021L45.4571 23.0209C45.3627 22.9348 45.2072 22.8828 45.1009 22.8828H28.5878C27.5248 22.8828 26.6602 23.7472 26.6602 24.8102V54.3901C26.6602 55.453 27.5248 56.3174 28.5878 56.3174H49.6818C50.7448 56.3174 51.6095 55.453 51.6095 54.3901V48.4471C51.6095 48.1545 51.3724 47.9177 51.08 47.9177ZM45.673 28.3444C45.6489 28.3444 45.6295 28.3248 45.6295 28.301V24.6123C46.1271 25.0669 49.3978 28.055 49.7146 28.3444H45.673Z" fill="#1147AB"/>
<path d="M29.8185 27.8401H39.0992C39.3916 27.8401 39.6286 27.6033 39.6286 27.3107C39.6286 27.018 39.3916 26.7812 39.0992 26.7812H29.8185C29.5261 26.7812 29.2891 27.018 29.2891 27.3107C29.2891 27.6033 29.5261 27.8401 29.8185 27.8401Z" fill="#1147AB"/>
<path d="M48.6183 32.2247C48.6183 31.9321 48.3812 31.6953 48.0889 31.6953H29.8185C29.5261 31.6953 29.2891 31.9321 29.2891 32.2247C29.2891 32.5173 29.5261 32.7541 29.8185 32.7541H48.0889C48.3812 32.7541 48.6183 32.5173 48.6183 32.2247Z" fill="#1147AB"/>
<path d="M39.0992 36.6133H29.8185C29.5261 36.6133 29.2891 36.8501 29.2891 37.1427C29.2891 37.4353 29.5261 37.6721 29.8185 37.6721H39.0992C39.3916 37.6721 39.6286 37.4353 39.6286 37.1427C39.6286 36.8501 39.3916 36.6133 39.0992 36.6133Z" fill="#1147AB"/>
<path d="M29.8185 42.5862H39.0992C39.3916 42.5862 39.6286 42.3494 39.6286 42.0568C39.6286 41.7641 39.3916 41.5273 39.0992 41.5273H29.8185C29.5261 41.5273 29.2891 41.7641 29.2891 42.0568C29.2891 42.3494 29.5261 42.5862 29.8185 42.5862Z" fill="#1147AB"/>
<path d="M41.1711 46.4434H29.8185C29.5261 46.4434 29.2891 46.6802 29.2891 46.9728C29.2891 47.2654 29.5261 47.5022 29.8185 47.5022H41.1711C41.4635 47.5022 41.7005 47.2654 41.7005 46.9728C41.7005 46.6802 41.4635 46.4434 41.1711 46.4434Z" fill="#1147AB"/>
<path d="M29.2891 51.8888C29.2891 52.1814 29.5261 52.4182 29.8185 52.4182H48.0889C48.3812 52.4182 48.6183 52.1814 48.6183 51.8888C48.6183 51.5962 48.3812 51.3594 48.0889 51.3594H29.8185C29.5261 51.3594 29.2891 51.5962 29.2891 51.8888Z" fill="#1147AB"/>
<path d="M46.0742 35.6584C43.7096 36.162 42.1176 38.2029 42.0007 40.4277C41.9855 40.7198 42.2096 40.969 42.5017 40.9845C42.511 40.9851 42.5206 40.9851 42.5299 40.9851C42.8096 40.9851 43.0433 40.7659 43.058 40.4836C43.1518 38.6954 44.4389 37.089 46.2945 36.6944C46.5804 36.6334 46.7631 36.3522 46.7021 36.0663C46.6411 35.7804 46.3609 35.5968 46.0742 35.6584Z" fill="#1147AB"/>
<path d="M59.6505 47.4118L58.6199 46.5913C58.3908 46.4099 58.0579 46.4471 57.8759 46.6756C57.6936 46.9046 57.7316 47.2376 57.9602 47.4196L58.9908 48.24C59.5545 48.6884 59.6488 49.5099 59.1989 50.0744C58.7457 50.6435 57.926 50.7287 57.3646 50.2827L53.7642 47.4159L55.3904 45.3733L56.1866 46.0071C56.4151 46.1896 56.7486 46.1519 56.9305 45.9228C57.1128 45.6938 57.075 45.3609 56.8463 45.1789L55.636 44.2152C55.4042 44.0302 55.0716 44.0742 54.892 44.2995L54.8286 44.3791L53.8549 43.6037C55.164 40.5812 54.3081 37.0908 51.7042 35.0234C49.9792 33.6596 47.7552 33.1554 45.6376 33.6151C39.6892 34.8805 37.827 42.5828 42.6455 46.4114C45.3176 48.538 49.1523 48.496 51.7654 46.371L52.6694 47.0908L52.6061 47.1704C52.4238 47.3994 52.4616 47.7324 52.6903 47.9143L56.7049 51.111C57.7223 51.9207 59.2102 51.761 60.0271 50.7341C60.8412 49.7124 60.6728 48.226 59.6505 47.4118ZM43.3044 45.5826C39.1752 42.3015 40.7992 35.7273 45.8605 34.6501C47.7246 34.2447 49.6224 34.7239 51.053 35.8583C53.6441 37.9154 54.172 41.605 52.2577 44.3045L52.0659 44.5651C49.2838 47.5762 45.6973 47.4869 43.3044 45.5826ZM53.1202 44.9188C53.1205 44.9184 53.1208 44.9179 53.1211 44.9175L53.122 44.9162C53.1231 44.9147 53.1241 44.913 53.1251 44.9115C53.206 44.7969 53.2839 44.6805 53.358 44.5616L54.1677 45.2063L53.3278 46.2615L52.5425 45.6359C52.8257 45.3265 52.994 45.0973 53.1202 44.9188Z" fill="#1147AB"/>
</svg>
