<svg width="37" height="37" viewBox="0 0 37 37" fill="none" xmlns="http://www.w3.org/2000/svg">
<path opacity="0.6" d="M18.8567 36.5C14.1786 36.4979 9.69287 34.6002 6.3857 31.2241C3.07853 27.8479 1.2207 23.2697 1.2207 18.4961V18.4961C1.2207 13.7233 3.07877 9.14587 6.38616 5.77094C9.69355 2.39602 14.1793 0.500002 18.8567 0.500002C21.1733 0.498984 23.4674 0.96372 25.608 1.86765C27.7486 2.77159 29.6937 4.09701 31.3321 5.7682C32.9706 7.4394 34.2703 9.42362 35.1571 11.6075C36.0438 13.7914 36.5002 16.1322 36.5002 18.4961V18.4961C36.5002 23.2711 34.6414 27.8504 31.3326 31.2268C28.0238 34.6032 23.536 36.5 18.8567 36.5V36.5Z" stroke="white" stroke-miterlimit="10"/>
<g opacity="0.8" clip-path="url(#clip0_504_8416)">
<path d="M16.6166 21.6898L18.9733 23.4912L22.8262 26.4007C23.5329 26.8068 24.0307 26.593 24.2214 25.7304L26.7504 13.5106L26.7511 13.5099C26.9753 12.4328 26.3734 12.0116 25.6849 12.2758L10.819 18.1445C9.80443 18.5506 9.81979 19.1338 10.6465 19.398L14.4471 20.617L23.2752 14.9211C23.6907 14.6374 24.0684 14.7944 23.7577 15.0781L16.6166 21.6898Z" fill="white"/>
</g>
<defs>
<clipPath id="clip0_504_8416">
<rect width="16.7578" height="17.1" fill="white" transform="translate(10.041 9.5)"/>
</clipPath>
</defs>
</svg>
