<svg width="37" height="37" viewBox="0 0 37 37" fill="none" xmlns="http://www.w3.org/2000/svg">
<path opacity="0.6" d="M18.6418 36.5C13.9627 36.4979 9.47597 34.6002 6.16808 31.2241C2.86018 27.8479 1.00195 23.2697 1.00195 18.4961V18.4961C1.00195 13.7233 2.86043 9.14587 6.16854 5.77094C9.47665 2.39601 13.9634 0.5 18.6418 0.5C23.3202 0.5 27.8069 2.39601 31.115 5.77094C34.4231 9.14587 36.2816 13.7233 36.2816 18.4961V18.4961C36.2816 23.2697 34.4234 27.8479 31.1155 31.2241C27.8076 34.6002 23.3209 36.4979 18.6418 36.5V36.5Z" stroke="white" stroke-miterlimit="10"/>
<path opacity="0.8" d="M12.291 22.6803C13.433 23.4456 14.7534 23.8674 16.1082 23.8996C17.463 23.9318 18.8002 23.5732 19.9741 22.863C21.1479 22.1527 22.1133 21.1181 22.765 19.8718C23.4167 18.6255 23.7296 17.2155 23.6697 15.7955C24.187 15.4092 24.6347 14.9295 24.9917 14.3786C24.5174 14.602 24.0131 14.7471 23.4965 14.8085C24.0438 14.4705 24.4544 13.9343 24.6511 13.3008C24.1402 13.6183 23.582 13.8434 23 13.9669C22.6092 13.5279 22.0911 13.2366 21.5263 13.1383C20.9614 13.04 20.3814 13.1402 19.8764 13.4234C19.3714 13.7065 18.9698 14.1567 18.7339 14.7039C18.498 15.2512 18.4411 15.8648 18.5721 16.4495C17.5377 16.3968 16.5255 16.1162 15.6014 15.6258C14.6774 15.1355 13.8622 14.4464 13.2089 13.6036C12.8778 14.2034 12.7771 14.913 12.9273 15.5879C13.0774 16.2629 13.4672 16.8525 14.0172 17.2367C13.6123 17.2196 13.2169 17.1035 12.8625 16.8976C12.8557 17.5325 13.0601 18.1501 13.4405 18.6441C13.8208 19.1381 14.3534 19.4776 14.9466 19.6043C14.5698 19.7089 14.1756 19.7254 13.792 19.6527C13.9565 20.1944 14.279 20.6681 14.7141 21.0071C15.1492 21.3461 15.6748 21.5332 16.2167 21.5419C15.6692 21.9992 15.0392 22.3358 14.3646 22.5314C13.69 22.727 12.9847 22.7777 12.291 22.6803Z" fill="white"/>
</svg>
