<svg width="26" height="21" viewBox="0 0 26 21" fill="none" xmlns="http://www.w3.org/2000/svg">
<path d="M25.3847 2.43615C24.4459 2.84342 23.4532 3.11264 22.4372 3.23546C23.509 2.59516 24.3122 1.58786 24.6978 0.400405C23.6906 0.999967 22.5881 1.42239 21.4381 1.64933C20.6695 0.815762 19.6459 0.260896 18.5279 0.0717527C17.4099 -0.11739 16.2608 0.0698881 15.2607 0.604216C14.2606 1.13854 13.4661 1.9897 13.0019 3.02419C12.5377 4.05868 12.43 5.21799 12.6956 6.3203C10.6592 6.21729 8.66718 5.68704 6.84901 4.76397C5.03085 3.8409 3.4272 2.54567 2.14225 0.96242C1.69156 1.74945 1.45474 2.64075 1.45534 3.54769C1.45375 4.38994 1.66044 5.21952 2.05702 5.96256C2.4536 6.70561 3.02776 7.33906 3.72838 7.80652C2.91406 7.78436 2.11713 7.56585 1.40539 7.16957V7.23201C1.41149 8.41211 1.82502 9.55387 2.57602 10.4642C3.32702 11.3745 4.3694 11.9975 5.52683 12.2277C5.08129 12.3633 4.61871 12.4348 4.15302 12.44C3.83066 12.4363 3.5091 12.407 3.19135 12.3526C3.52095 13.3677 4.15879 14.2549 5.01612 14.8906C5.87344 15.5263 6.90761 15.879 7.97472 15.8995C6.17278 17.3174 3.94805 18.0912 1.65517 18.0976C1.2377 18.099 0.820562 18.074 0.40625 18.0227C2.74727 19.5342 5.47539 20.3366 8.26197 20.3332C10.1849 20.3532 12.0926 19.9898 13.8735 19.2642C15.6545 18.5387 17.273 17.4655 18.6345 16.1075C19.9961 14.7494 21.0734 13.1337 21.8035 11.3546C22.5336 9.57552 22.9019 7.66879 22.8869 5.74579C22.8869 5.53348 22.8869 5.30867 22.8869 5.08386C23.8669 4.35301 24.7121 3.45705 25.3847 2.43615Z" fill="white"/>
</svg>
